<svg xmlns="http://www.w3.org/2000/svg" xmlns:xlink="http://www.w3.org/1999/xlink" width="500" zoomAndPan="magnify" viewBox="0 0 375 374.999991" height="500" preserveAspectRatio="xMidYMid meet" version="1.0"><defs><g/><clipPath id="31c7f23c24"><path d="M 78.03125 181.621094 L 101.753906 181.621094 L 101.753906 193.484375 L 78.03125 193.484375 Z M 78.03125 181.621094 " clip-rule="nonzero"/></clipPath><clipPath id="82813be1be"><path d="M 101.75 187.527344 C 101.75 190.792969 99.105469 193.4375 95.84375 193.4375 L 84.039062 193.4375 C 80.777344 193.4375 78.078125 190.832031 78.054688 187.574219 C 78.03125 184.289062 80.683594 181.621094 83.960938 181.621094 L 95.84375 181.621094 C 99.105469 181.621094 101.75 184.265625 101.75 187.527344 " clip-rule="nonzero"/></clipPath><clipPath id="fb344df89c"><path d="M 88.421875 156.476562 L 101.75 156.476562 L 101.75 178.203125 L 88.421875 178.203125 Z M 88.421875 156.476562 " clip-rule="nonzero"/></clipPath><clipPath id="e960e60350"><path d="M 101.75 165.988281 L 101.75 178.160156 L 90.183594 166.597656 C 87.878906 164.289062 87.878906 160.550781 90.183594 158.242188 C 92.492188 155.933594 96.234375 155.933594 98.539062 158.238281 C 100.59375 160.292969 101.75 163.082031 101.75 165.988281 " clip-rule="nonzero"/></clipPath><clipPath id="d2d62fcd66"><path d="M 88.421875 196.898438 L 101.75 196.898438 L 101.75 218.570312 L 88.421875 218.570312 Z M 88.421875 196.898438 " clip-rule="nonzero"/></clipPath><clipPath id="1b841ccad8"><path d="M 101.75 196.898438 L 101.75 209.066406 C 101.75 211.972656 100.59375 214.761719 98.539062 216.816406 C 96.234375 219.121094 92.496094 219.121094 90.183594 216.816406 C 87.875 214.507812 87.878906 210.769531 90.183594 208.460938 Z M 101.75 196.898438 " clip-rule="nonzero"/></clipPath><clipPath id="a0c2ddaf48"><path d="M 113.5625 146.085938 L 125.480469 146.085938 L 125.480469 168.425781 L 113.5625 168.425781 Z M 113.5625 146.085938 " clip-rule="nonzero"/></clipPath><clipPath id="6169d94551"><path d="M 125.382812 152.09375 C 125.382812 154.949219 124.246094 157.691406 122.226562 159.710938 L 113.566406 168.371094 L 113.566406 152.015625 C 113.566406 148.738281 116.234375 146.085938 119.519531 146.109375 C 122.777344 146.136719 125.382812 148.835938 125.382812 152.09375 " clip-rule="nonzero"/></clipPath><clipPath id="0503bc36bd"><path d="M 113.5625 206.65625 L 125.480469 206.65625 L 125.480469 228.996094 L 113.5625 228.996094 Z M 113.5625 206.65625 " clip-rule="nonzero"/></clipPath><clipPath id="d321caba0c"><path d="M 122.171875 215.289062 C 124.226562 217.34375 125.382812 220.132812 125.382812 223.039062 C 125.382812 226.074219 123.089844 228.578125 120.140625 228.910156 C 120.140625 228.910156 120.136719 228.910156 120.136719 228.910156 C 119.914062 228.914062 119.695312 228.914062 119.472656 228.914062 C 119.253906 228.914062 119.03125 228.914062 118.808594 228.910156 C 115.859375 228.578125 113.566406 226.078125 113.566406 223.039062 L 113.566406 206.683594 Z M 122.171875 215.289062 " clip-rule="nonzero"/></clipPath><clipPath id="5e4ea54a16"><path d="M 113.5625 156.511719 L 160.894531 156.511719 L 160.894531 218.570312 L 113.5625 218.570312 Z M 113.5625 156.511719 " clip-rule="nonzero"/></clipPath><clipPath id="951538a100"><path d="M 160.882812 187.21875 C 161.0625 190.613281 158.285156 193.4375 154.882812 193.4375 L 133.789062 193.4375 C 133.769531 193.4375 133.757812 193.460938 133.773438 193.472656 L 148.761719 208.460938 C 151.070312 210.769531 151.070312 214.507812 148.761719 216.816406 C 146.464844 219.109375 142.753906 219.125 140.441406 216.851562 C 140.429688 216.839844 140.417969 216.828125 140.40625 216.816406 C 140.390625 216.804688 140.378906 216.792969 140.367188 216.78125 L 125.382812 201.792969 L 125.382812 201.789062 L 119.476562 195.882812 L 119.472656 195.882812 L 117.027344 193.4375 L 115.292969 191.707031 C 114.1875 190.597656 113.566406 189.097656 113.566406 187.527344 C 113.566406 185.960938 114.1875 184.460938 115.292969 183.351562 L 117.027344 181.621094 L 119.472656 179.171875 L 125.382812 173.265625 L 140.40625 158.242188 L 140.445312 158.207031 C 142.753906 155.933594 146.464844 155.949219 148.761719 158.242188 C 151.070312 160.550781 151.070312 164.292969 148.765625 166.597656 L 133.773438 181.585938 C 133.761719 181.601562 133.769531 181.625 133.789062 181.625 L 154.984375 181.625 C 158.144531 181.625 160.722656 184.101562 160.882812 187.21875 " clip-rule="nonzero"/></clipPath><clipPath id="8bdb65a6ac"><path d="M 311.363281 197.46875 L 319.886719 197.46875 L 319.886719 205.992188 L 311.363281 205.992188 Z M 311.363281 197.46875 " clip-rule="nonzero"/></clipPath><clipPath id="a27218b174"><path d="M 315.625 197.46875 C 313.269531 197.46875 311.363281 199.378906 311.363281 201.730469 C 311.363281 204.085938 313.269531 205.992188 315.625 205.992188 C 317.976562 205.992188 319.886719 204.085938 319.886719 201.730469 C 319.886719 199.378906 317.976562 197.46875 315.625 197.46875 Z M 315.625 197.46875 " clip-rule="nonzero"/></clipPath></defs><g clip-path="url(#31c7f23c24)"><g clip-path="url(#82813be1be)"><path fill="#0e2776" d="M 78.03125 181.621094 L 101.753906 181.621094 L 101.753906 193.4375 L 78.03125 193.4375 Z M 78.03125 181.621094 " fill-opacity="1" fill-rule="nonzero"/></g></g><g clip-path="url(#fb344df89c)"><g clip-path="url(#e960e60350)"><path fill="#2dcf42" d="M 87.878906 155.933594 L 101.75 155.933594 L 101.75 178.148438 L 87.878906 178.148438 Z M 87.878906 155.933594 " fill-opacity="1" fill-rule="nonzero"/></g></g><g clip-path="url(#d2d62fcd66)"><g clip-path="url(#1b841ccad8)"><path fill="#efd109" d="M 87.878906 196.898438 L 101.75 196.898438 L 101.75 219.113281 L 87.878906 219.113281 Z M 87.878906 196.898438 " fill-opacity="1" fill-rule="nonzero"/></g></g><g clip-path="url(#a0c2ddaf48)"><g clip-path="url(#6169d94551)"><path fill="#e01d5b" d="M 112.738281 145.257812 L 161.890625 145.257812 L 161.890625 229.824219 L 112.738281 229.824219 Z M 112.738281 145.257812 " fill-opacity="1" fill-rule="nonzero"/></g></g><g clip-path="url(#0503bc36bd)"><g clip-path="url(#d321caba0c)"><path fill="#2bb1eb" d="M 112.738281 145.257812 L 161.890625 145.257812 L 161.890625 229.824219 L 112.738281 229.824219 Z M 112.738281 145.257812 " fill-opacity="1" fill-rule="nonzero"/></g></g><g clip-path="url(#5e4ea54a16)"><g clip-path="url(#951538a100)"><path fill="#0e2776" d="M 112.738281 145.257812 L 161.890625 145.257812 L 161.890625 229.824219 L 112.738281 229.824219 Z M 112.738281 145.257812 " fill-opacity="1" fill-rule="nonzero"/></g></g><g fill="#0e2776" fill-opacity="1"><g transform="translate(164.119827, 204.749987)"><g><path d="M 19.632812 -17.375 L 34.128906 -33.121094 L 25.152344 -33.121094 L 11.617188 -17.761719 L 11.617188 -33.121094 L 4.078125 -33.121094 L 4.078125 0 L 11.617188 0 L 11.617188 -10.320312 L 14.160156 -13.152344 L 24 0 L 33.550781 0 Z M 19.632812 -17.375 "/></g></g></g><g fill="#0e2776" fill-opacity="1"><g transform="translate(198.19977, 204.749987)"><g><path d="M 6.574219 -35.472656 C 4.175781 -35.472656 2.59375 -33.984375 2.59375 -31.679688 C 2.59375 -29.328125 4.175781 -27.839844 6.574219 -27.839844 C 8.976562 -27.839844 10.609375 -29.328125 10.609375 -31.679688 C 10.609375 -33.984375 8.976562 -35.472656 6.574219 -35.472656 Z M 10.367188 0 L 10.367188 -25.585938 L 2.832031 -25.585938 L 2.832031 0 Z M 10.367188 0 "/></g></g></g><g fill="#0e2776" fill-opacity="1"><g transform="translate(211.447747, 204.749987)"><g><path d="M 6.480469 -35.472656 C 3.792969 -35.472656 2.449219 -34.273438 2.449219 -31.679688 C 2.449219 -29.039062 3.792969 -27.839844 6.480469 -27.839844 C 9.121094 -27.839844 10.464844 -29.039062 10.464844 -31.679688 C 10.464844 -34.273438 9.121094 -35.472656 6.480469 -35.472656 Z M 10.222656 -25.585938 L 2.6875 -25.585938 L 2.6875 0.046875 C 2.6875 0.769531 2.6875 1.632812 2.59375 2.304688 C 2.398438 4.414062 1.054688 4.992188 -1.96875 4.703125 L -1.96875 9.9375 C -1.152344 10.03125 -0.238281 10.078125 0.71875 10.078125 C 7.246094 10.078125 9.792969 7.441406 10.128906 3.070312 C 10.175781 2.207031 10.222656 0.960938 10.222656 -0.046875 Z M 10.222656 -25.585938 "/></g></g></g><g fill="#0e2776" fill-opacity="1"><g transform="translate(224.407722, 204.749987)"><g><path d="M 17.761719 0 L 25.105469 0 C 24.71875 -2.832031 24.625 -4.558594 24.625 -6.480469 L 24.625 -14.257812 C 24.625 -15.742188 24.574219 -17.183594 24.480469 -18.382812 C 24.097656 -22.945312 21.359375 -26.257812 13.777344 -26.257812 C 7.535156 -26.257812 2.59375 -22.945312 2.449219 -17.089844 L 9.648438 -17.089844 C 9.839844 -19.632812 11.136719 -21.070312 13.488281 -21.070312 C 15.742188 -21.070312 16.894531 -19.824219 17.039062 -18.289062 C 17.136719 -17.425781 17.136719 -16.753906 17.136719 -16.078125 L 17.136719 -15.648438 L 15.503906 -15.648438 C 6.480469 -15.648438 1.535156 -12.382812 1.535156 -6.816406 C 1.535156 -1.96875 5.425781 0.671875 9.742188 0.671875 C 12.097656 0.671875 14.257812 0.144531 16.078125 -1.007812 L 17.230469 -3.742188 Z M 12.71875 -4.511719 C 10.65625 -4.511719 9.265625 -5.519531 9.265625 -7.441406 C 9.265625 -10.414062 12.480469 -11.566406 17.136719 -11.183594 L 17.136719 -9.3125 C 17.136719 -6.144531 14.976562 -4.511719 12.71875 -4.511719 Z M 12.71875 -4.511719 "/></g></g></g><g fill="#0e2776" fill-opacity="1"><g transform="translate(251.911672, 204.749987)"><g><path d="M 42.238281 -19.871094 C 41.664062 -23.375 38.832031 -26.257812 33.839844 -26.257812 C 31.535156 -26.257812 29.855469 -25.777344 28.367188 -24.769531 L 25.777344 -21.3125 C 24.71875 -24.144531 22.078125 -26.257812 17.808594 -26.257812 C 15.457031 -26.257812 13.824219 -25.777344 12.289062 -24.769531 L 10.367188 -21.601562 L 10.367188 -25.585938 L 2.832031 -25.585938 L 2.832031 0 L 10.367188 0 L 10.367188 -13.296875 C 10.367188 -18.527344 11.761719 -21.070312 14.640625 -21.070312 C 17.089844 -21.070312 18.382812 -19.632812 18.71875 -17.089844 C 18.863281 -15.792969 18.910156 -14.398438 18.910156 -13.199219 L 18.910156 0 L 26.398438 0 L 26.398438 -13.296875 C 26.398438 -18.527344 27.839844 -21.070312 30.71875 -21.070312 C 33.121094 -21.070312 34.464844 -19.632812 34.753906 -17.089844 C 34.894531 -15.792969 34.945312 -14.398438 34.945312 -13.199219 L 34.945312 0 L 42.480469 0 L 42.480469 -15.121094 C 42.480469 -17.183594 42.433594 -18.574219 42.238281 -19.871094 Z M 42.238281 -19.871094 "/></g></g></g><g fill="#0e2776" fill-opacity="1"><g transform="translate(296.935588, 204.749987)"><g><path d="M 6.574219 -35.472656 C 4.175781 -35.472656 2.59375 -33.984375 2.59375 -31.679688 C 2.59375 -29.328125 4.175781 -27.839844 6.574219 -27.839844 C 8.976562 -27.839844 10.609375 -29.328125 10.609375 -31.679688 C 10.609375 -33.984375 8.976562 -35.472656 6.574219 -35.472656 Z M 10.367188 0 L 10.367188 -25.585938 L 2.832031 -25.585938 L 2.832031 0 Z M 10.367188 0 "/></g></g></g><g clip-path="url(#8bdb65a6ac)"><g clip-path="url(#a27218b174)"><path fill="#e01d5b" d="M 311.363281 197.46875 L 319.886719 197.46875 L 319.886719 205.992188 L 311.363281 205.992188 Z M 311.363281 197.46875 " fill-opacity="1" fill-rule="nonzero"/></g></g></svg>