<svg xmlns="http://www.w3.org/2000/svg" xmlns:xlink="http://www.w3.org/1999/xlink" width="150" zoomAndPan="magnify" viewBox="0 0 112.5 112.499997" height="150" preserveAspectRatio="xMidYMid meet" version="1.0"><defs><clipPath id="53329ac5d0"><path d="M 51.785156 55.324219 L 54.113281 55.324219 L 54.113281 56.492188 L 51.785156 56.492188 Z M 51.785156 55.324219 " clip-rule="nonzero"/></clipPath><clipPath id="71b13fd5fd"><path d="M 54.113281 55.90625 C 54.113281 56.226562 53.851562 56.484375 53.53125 56.484375 L 52.371094 56.484375 C 52.050781 56.484375 51.785156 56.230469 51.785156 55.910156 C 51.78125 55.585938 52.042969 55.324219 52.363281 55.324219 L 53.53125 55.324219 C 53.851562 55.324219 54.113281 55.585938 54.113281 55.90625 " clip-rule="nonzero"/></clipPath><clipPath id="5ab375d5b3"><path d="M 52.804688 52.855469 L 54.113281 52.855469 L 54.113281 54.988281 L 52.804688 54.988281 Z M 52.804688 52.855469 " clip-rule="nonzero"/></clipPath><clipPath id="db703f4933"><path d="M 54.113281 53.789062 L 54.113281 54.984375 L 52.976562 53.847656 C 52.75 53.621094 52.75 53.253906 52.976562 53.027344 C 53.203125 52.800781 53.570312 52.800781 53.796875 53.027344 C 54 53.230469 54.113281 53.503906 54.113281 53.789062 " clip-rule="nonzero"/></clipPath><clipPath id="fa1fb339c6"><path d="M 52.804688 56.824219 L 54.113281 56.824219 L 54.113281 58.957031 L 52.804688 58.957031 Z M 52.804688 56.824219 " clip-rule="nonzero"/></clipPath><clipPath id="d69816577f"><path d="M 54.113281 56.824219 L 54.113281 58.023438 C 54.113281 58.308594 54 58.582031 53.796875 58.785156 C 53.570312 59.011719 53.203125 59.011719 52.976562 58.785156 C 52.75 58.554688 52.75 58.1875 52.976562 57.960938 Z M 54.113281 56.824219 " clip-rule="nonzero"/></clipPath><clipPath id="59f7191bf5"><path d="M 55.273438 51.832031 L 56.445312 51.832031 L 56.445312 54.027344 L 55.273438 54.027344 Z M 55.273438 51.832031 " clip-rule="nonzero"/></clipPath><clipPath id="fb105c0ef0"><path d="M 56.433594 52.421875 C 56.433594 52.703125 56.324219 52.972656 56.125 53.171875 L 55.273438 54.023438 L 55.273438 52.414062 C 55.273438 52.09375 55.535156 51.832031 55.859375 51.835938 C 56.179688 51.835938 56.433594 52.101562 56.433594 52.421875 " clip-rule="nonzero"/></clipPath><clipPath id="6dcc09ece9"><path d="M 55.273438 57.785156 L 56.445312 57.785156 L 56.445312 59.980469 L 55.273438 59.980469 Z M 55.273438 57.785156 " clip-rule="nonzero"/></clipPath><clipPath id="8ac27f5c46"><path d="M 56.121094 58.632812 C 56.320312 58.835938 56.433594 59.109375 56.433594 59.394531 C 56.433594 59.695312 56.210938 59.9375 55.921875 59.972656 C 55.921875 59.972656 55.921875 59.972656 55.917969 59.972656 C 55.898438 59.972656 55.875 59.972656 55.855469 59.972656 C 55.832031 59.972656 55.8125 59.972656 55.789062 59.972656 C 55.5 59.9375 55.273438 59.695312 55.273438 59.394531 L 55.273438 57.789062 Z M 56.121094 58.632812 " clip-rule="nonzero"/></clipPath><clipPath id="e71cd8a644"><path d="M 55.273438 52.855469 L 59.925781 52.855469 L 59.925781 58.957031 L 55.273438 58.957031 Z M 55.273438 52.855469 " clip-rule="nonzero"/></clipPath><clipPath id="ebfd651888"><path d="M 59.925781 55.875 C 59.941406 56.207031 59.667969 56.484375 59.335938 56.484375 L 57.261719 56.484375 C 57.257812 56.484375 57.257812 56.488281 57.261719 56.488281 L 58.734375 57.960938 C 58.960938 58.1875 58.960938 58.554688 58.734375 58.785156 C 58.507812 59.007812 58.140625 59.011719 57.914062 58.785156 C 57.914062 58.785156 57.914062 58.785156 57.910156 58.785156 C 57.910156 58.78125 57.910156 58.78125 57.90625 58.78125 L 56.433594 57.308594 L 55.855469 56.726562 L 55.445312 56.316406 C 55.335938 56.207031 55.273438 56.058594 55.273438 55.90625 C 55.273438 55.75 55.335938 55.605469 55.445312 55.496094 L 55.613281 55.324219 L 55.855469 55.085938 L 56.433594 54.503906 L 57.910156 53.03125 L 57.910156 53.027344 L 57.914062 53.023438 C 58.140625 52.800781 58.507812 52.800781 58.734375 53.027344 C 58.960938 53.253906 58.960938 53.621094 58.734375 53.847656 L 57.261719 55.320312 C 57.257812 55.324219 57.261719 55.324219 57.261719 55.324219 L 59.34375 55.324219 C 59.65625 55.324219 59.90625 55.570312 59.925781 55.875 " clip-rule="nonzero"/></clipPath><clipPath id="6f83ac9ea5"><path d="M 56 42 L 91.917969 42 L 91.917969 88 L 56 88 Z M 56 42 " clip-rule="nonzero"/></clipPath><clipPath id="9656221509"><path d="M 20.082031 70 L 59 70 L 59 88.101562 L 20.082031 88.101562 Z M 20.082031 70 " clip-rule="nonzero"/></clipPath></defs><g clip-path="url(#53329ac5d0)"><g clip-path="url(#71b13fd5fd)"><path fill="#0e2776" d="M 51.78125 55.324219 L 54.113281 55.324219 L 54.113281 56.484375 L 51.78125 56.484375 Z M 51.78125 55.324219 " fill-opacity="1" fill-rule="nonzero"/></g></g><g clip-path="url(#5ab375d5b3)"><g clip-path="url(#db703f4933)"><path fill="#2dcf42" d="M 52.75 52.800781 L 54.113281 52.800781 L 54.113281 54.984375 L 52.75 54.984375 Z M 52.75 52.800781 " fill-opacity="1" fill-rule="nonzero"/></g></g><g clip-path="url(#fa1fb339c6)"><g clip-path="url(#d69816577f)"><path fill="#efd109" d="M 52.75 56.824219 L 54.113281 56.824219 L 54.113281 59.007812 L 52.75 59.007812 Z M 52.75 56.824219 " fill-opacity="1" fill-rule="nonzero"/></g></g><g clip-path="url(#59f7191bf5)"><g clip-path="url(#fb105c0ef0)"><path fill="#e01d5b" d="M 55.191406 51.75 L 60.023438 51.75 L 60.023438 60.0625 L 55.191406 60.0625 Z M 55.191406 51.75 " fill-opacity="1" fill-rule="nonzero"/></g></g><g clip-path="url(#6dcc09ece9)"><g clip-path="url(#8ac27f5c46)"><path fill="#2bb1eb" d="M 55.191406 51.75 L 60.023438 51.75 L 60.023438 60.0625 L 55.191406 60.0625 Z M 55.191406 51.75 " fill-opacity="1" fill-rule="nonzero"/></g></g><g clip-path="url(#e71cd8a644)"><g clip-path="url(#ebfd651888)"><path fill="#0e2776" d="M 55.191406 51.75 L 60.023438 51.75 L 60.023438 60.0625 L 55.191406 60.0625 Z M 55.191406 51.75 " fill-opacity="1" fill-rule="nonzero"/></g></g><path fill="#0e2776" d="M 62.53125 44.699219 C 62.628906 44.402344 62.652344 44.078125 62.582031 43.753906 C 62.363281 42.796875 61.417969 42.195312 60.460938 42.410156 C 60.394531 42.425781 60.332031 42.4375 60.265625 42.449219 C 60.914062 43.300781 61.671875 44.050781 62.53125 44.699219 Z M 62.53125 44.699219 " fill-opacity="1" fill-rule="nonzero"/><path fill="#0e2776" d="M 56.289062 43.472656 C 56.328125 43.179688 56.421875 42.90625 56.566406 42.660156 C 53.921875 42.390625 51.714844 41.257812 50.085938 40.082031 C 49.160156 39.410156 48.433594 38.738281 47.949219 38.238281 C 47.707031 37.988281 47.523438 37.785156 47.40625 37.648438 C 47.347656 37.582031 47.304688 37.527344 47.28125 37.496094 C 47.269531 37.480469 47.257812 37.472656 47.253906 37.464844 C 47.144531 37.320312 47.015625 37.199219 46.875 37.097656 C 44.914062 35.136719 42.957031 33.171875 41 31.207031 C 40.921875 31.125 40.816406 31.050781 40.695312 30.980469 C 40.40625 30.734375 39.902344 30.339844 39.21875 29.933594 C 38.164062 29.320312 36.65625 28.65625 34.816406 28.652344 C 33.027344 28.636719 30.984375 29.363281 29.234375 31.125 C 27.472656 32.878906 25.921875 35.570312 24.609375 39.632812 C 24.308594 40.5625 24.820312 41.5625 25.753906 41.863281 C 25.933594 41.921875 26.117188 41.949219 26.300781 41.949219 C 27.046875 41.949219 27.746094 41.472656 27.988281 40.71875 C 29.183594 37 30.539062 34.816406 31.730469 33.644531 C 32.9375 32.472656 33.898438 32.214844 34.816406 32.199219 C 35.234375 32.195312 35.652344 32.273438 36.054688 32.390625 C 32.5 36.652344 30.5 41.898438 28.664062 47.207031 C 28.605469 47.382812 28.566406 47.5625 28.546875 47.734375 C 28.324219 48.46875 28.402344 49.292969 28.832031 49.996094 C 28.832031 49.996094 28.835938 50.003906 28.847656 50.019531 C 28.980469 50.25 29.972656 52.121094 29.960938 54.726562 C 29.957031 56.105469 29.703125 57.703125 28.894531 59.503906 C 28.085938 61.304688 26.714844 63.320312 24.382812 65.472656 C 23.257812 66.507812 23.183594 68.261719 24.222656 69.386719 C 24.769531 69.980469 25.515625 70.28125 26.261719 70.28125 C 26.933594 70.28125 27.605469 70.039062 28.140625 69.546875 C 30.949219 66.960938 32.8125 64.320312 33.953125 61.777344 C 35.097656 59.238281 35.507812 56.8125 35.503906 54.722656 C 35.503906 54.140625 35.46875 53.582031 35.414062 53.054688 C 35.957031 53.339844 37.082031 54.007812 38.132812 55.0625 C 38.855469 55.78125 39.539062 56.667969 40.042969 57.730469 C 40.542969 58.800781 40.878906 60.039062 40.878906 61.589844 C 40.878906 62.941406 40.617188 64.542969 39.90625 66.457031 C 39.371094 67.890625 40.101562 69.484375 41.535156 70.019531 C 41.851562 70.140625 42.179688 70.195312 42.503906 70.195312 C 43.625 70.195312 44.683594 69.507812 45.101562 68.394531 C 46.015625 65.945312 46.425781 63.667969 46.421875 61.589844 C 46.425781 59.132812 45.847656 56.972656 44.972656 55.195312 C 43.660156 52.519531 41.753906 50.703125 40.195312 49.542969 C 39.78125 49.234375 39.390625 48.972656 39.035156 48.75 C 40.347656 44.132812 42.460938 42.488281 45.605469 40.914062 C 46.195312 41.5 47 42.226562 48.011719 42.957031 C 50.25 44.578125 53.554688 46.246094 57.683594 46.265625 C 57.347656 45.898438 57.023438 45.515625 56.71875 45.113281 C 56.359375 44.644531 56.207031 44.058594 56.289062 43.472656 Z M 56.289062 43.472656 " fill-opacity="1" fill-rule="nonzero"/><path fill="#0e2776" d="M 50.652344 25.921875 C 50.9375 26.085938 51.203125 26.273438 51.449219 26.488281 C 51.695312 26.703125 51.921875 26.9375 52.121094 27.199219 C 52.324219 27.457031 52.496094 27.730469 52.644531 28.023438 C 52.789062 28.316406 52.90625 28.621094 52.992188 28.9375 C 53.082031 29.253906 53.136719 29.574219 53.160156 29.902344 C 53.183594 30.226562 53.171875 30.554688 53.132812 30.878906 C 53.089844 31.203125 53.019531 31.523438 52.917969 31.832031 C 52.8125 32.144531 52.679688 32.441406 52.519531 32.726562 C 52.355469 33.011719 52.167969 33.277344 51.953125 33.523438 C 51.738281 33.769531 51.503906 33.996094 51.242188 34.195312 C 50.984375 34.398438 50.710938 34.570312 50.417969 34.71875 C 50.125 34.863281 49.820312 34.980469 49.503906 35.066406 C 49.1875 35.15625 48.867188 35.210938 48.539062 35.234375 C 48.210938 35.257812 47.886719 35.246094 47.5625 35.207031 C 47.238281 35.164062 46.917969 35.09375 46.609375 34.992188 C 46.296875 34.886719 46 34.753906 45.714844 34.59375 C 45.429688 34.429688 45.164062 34.242188 44.917969 34.027344 C 44.667969 33.8125 44.445312 33.578125 44.246094 33.316406 C 44.042969 33.058594 43.871094 32.785156 43.722656 32.492188 C 43.578125 32.199219 43.460938 31.894531 43.371094 31.578125 C 43.285156 31.261719 43.230469 30.941406 43.207031 30.613281 C 43.183594 30.285156 43.191406 29.960938 43.234375 29.636719 C 43.273438 29.3125 43.347656 28.992188 43.449219 28.683594 C 43.554688 28.371094 43.6875 28.074219 43.847656 27.789062 C 44.011719 27.503906 44.199219 27.238281 44.414062 26.992188 C 44.628906 26.742188 44.863281 26.519531 45.125 26.320312 C 45.382812 26.117188 45.65625 25.945312 45.949219 25.796875 C 46.242188 25.652344 46.546875 25.535156 46.863281 25.449219 C 47.179688 25.359375 47.5 25.304688 47.828125 25.28125 C 48.152344 25.257812 48.480469 25.269531 48.804688 25.308594 C 49.128906 25.347656 49.449219 25.421875 49.757812 25.523438 C 50.070312 25.628906 50.367188 25.761719 50.652344 25.921875 Z M 50.652344 25.921875 " fill-opacity="1" fill-rule="nonzero"/><path fill="#0e2776" d="M 76.273438 36.550781 C 76.597656 36.5625 76.921875 36.609375 77.238281 36.683594 C 77.558594 36.761719 77.867188 36.867188 78.164062 37.003906 C 78.460938 37.140625 78.742188 37.308594 79.007812 37.5 C 79.273438 37.691406 79.515625 37.910156 79.738281 38.148438 C 79.960938 38.390625 80.15625 38.652344 80.328125 38.929688 C 80.5 39.210938 80.640625 39.503906 80.753906 39.808594 C 80.867188 40.117188 80.949219 40.433594 81 40.757812 C 81.050781 41.078125 81.070312 41.40625 81.058594 41.730469 C 81.042969 42.058594 81 42.382812 80.921875 42.699219 C 80.847656 43.019531 80.738281 43.328125 80.601562 43.625 C 80.464844 43.921875 80.300781 44.203125 80.105469 44.46875 C 79.914062 44.730469 79.699219 44.976562 79.457031 45.199219 C 79.214844 45.421875 78.957031 45.617188 78.675781 45.789062 C 78.398438 45.957031 78.105469 46.101562 77.796875 46.214844 C 77.488281 46.328125 77.175781 46.410156 76.851562 46.460938 C 76.527344 46.511719 76.203125 46.53125 75.875 46.515625 C 75.546875 46.503906 75.222656 46.460938 74.90625 46.382812 C 74.585938 46.304688 74.28125 46.199219 73.980469 46.0625 C 73.683594 45.925781 73.402344 45.757812 73.140625 45.566406 C 72.875 45.375 72.628906 45.15625 72.410156 44.917969 C 72.1875 44.675781 71.988281 44.417969 71.820312 44.136719 C 71.648438 43.859375 71.503906 43.566406 71.390625 43.257812 C 71.277344 42.949219 71.195312 42.632812 71.144531 42.3125 C 71.09375 41.988281 71.074219 41.664062 71.089844 41.335938 C 71.101562 41.007812 71.148438 40.683594 71.222656 40.367188 C 71.300781 40.046875 71.40625 39.742188 71.542969 39.441406 C 71.679688 39.144531 71.847656 38.863281 72.039062 38.601562 C 72.230469 38.335938 72.449219 38.089844 72.6875 37.871094 C 72.929688 37.648438 73.191406 37.449219 73.46875 37.28125 C 73.75 37.109375 74.042969 36.964844 74.347656 36.851562 C 74.65625 36.738281 74.972656 36.65625 75.296875 36.605469 C 75.617188 36.554688 75.945312 36.535156 76.273438 36.550781 Z M 76.273438 36.550781 " fill-opacity="1" fill-rule="nonzero"/><g clip-path="url(#6f83ac9ea5)"><path fill="#0e2776" d="M 85.882812 46.785156 C 84.265625 46.195312 82.875 46.132812 82.269531 46.128906 C 82.039062 46.097656 81.832031 46.097656 81.667969 46.140625 C 78.996094 46.761719 76.320312 47.390625 73.648438 48.011719 C 73.324219 48.035156 72.878906 48.058594 72.335938 48.058594 C 70.804688 48.058594 68.527344 47.878906 66.238281 47.113281 C 64.898438 46.660156 63.566406 46.023438 62.335938 45.109375 C 61.457031 44.457031 60.632812 43.664062 59.898438 42.699219 C 59.855469 42.644531 59.8125 42.59375 59.765625 42.546875 C 59.152344 41.902344 58.136719 41.808594 57.410156 42.359375 C 57.28125 42.460938 57.167969 42.574219 57.074219 42.699219 C 56.601562 43.316406 56.578125 44.195312 57.074219 44.84375 C 57.457031 45.351562 57.863281 45.820312 58.285156 46.253906 C 60.351562 48.394531 62.796875 49.703125 65.113281 50.476562 C 67.90625 51.410156 70.539062 51.601562 72.335938 51.605469 C 72.363281 51.605469 72.386719 51.605469 72.414062 51.605469 C 74.160156 54.386719 75.175781 56.6875 74.4375 60.484375 C 73.871094 60.132812 73.257812 59.796875 72.597656 59.5 C 71.339844 58.941406 69.886719 58.519531 68.277344 58.515625 C 66.332031 58.496094 64.1875 59.222656 62.4375 60.789062 C 60.675781 62.351562 59.257812 64.613281 58.105469 67.714844 C 57.570312 69.152344 58.300781 70.746094 59.738281 71.277344 C 60.054688 71.394531 60.382812 71.453125 60.703125 71.453125 C 61.828125 71.453125 62.886719 70.761719 63.300781 69.644531 C 64.238281 67.109375 65.269531 65.675781 66.101562 64.949219 C 66.949219 64.230469 67.542969 64.078125 68.277344 64.058594 C 68.878906 64.058594 69.59375 64.230469 70.34375 64.566406 C 71.464844 65.058594 72.609375 65.90625 73.417969 66.625 C 73.828125 66.984375 74.15625 67.3125 74.375 67.539062 C 74.484375 67.652344 74.566406 67.742188 74.617188 67.796875 C 74.640625 67.824219 74.660156 67.84375 74.667969 67.855469 C 74.671875 67.859375 74.671875 67.859375 74.671875 67.859375 C 74.675781 67.859375 74.675781 67.863281 74.675781 67.863281 C 75.371094 68.671875 76.429688 68.980469 77.402344 68.753906 C 77.339844 69.375 77.300781 70.058594 77.300781 70.808594 C 77.296875 74.535156 78.277344 79.839844 81.941406 86.136719 C 82.457031 87.019531 83.386719 87.515625 84.339844 87.515625 C 84.8125 87.515625 85.292969 87.394531 85.730469 87.140625 C 87.054688 86.371094 87.503906 84.675781 86.734375 83.351562 C 83.535156 77.835938 82.847656 73.585938 82.84375 70.808594 C 82.84375 69.5 83 68.519531 83.144531 67.894531 C 83.214844 67.582031 83.285156 67.363281 83.328125 67.234375 C 83.347656 67.171875 83.363281 67.132812 83.367188 67.117188 L 83.371094 67.113281 C 83.417969 66.996094 83.457031 66.878906 83.488281 66.757812 C 83.566406 66.597656 83.628906 66.425781 83.667969 66.242188 C 84.875 60.976562 85.917969 55.683594 85.324219 50.402344 C 85.453125 50.46875 85.582031 50.539062 85.707031 50.617188 C 86.390625 51.035156 87.007812 51.609375 87.492188 52.488281 C 87.96875 53.371094 88.328125 54.597656 88.332031 56.386719 C 88.332031 57.664062 88.140625 59.222656 87.675781 61.101562 C 87.441406 62.050781 88.019531 63.011719 88.972656 63.25 C 89.113281 63.285156 89.257812 63.300781 89.398438 63.300781 C 90.195312 63.300781 90.917969 62.761719 91.121094 61.953125 C 91.640625 59.851562 91.878906 58.011719 91.878906 56.386719 C 91.878906 54.121094 91.410156 52.261719 90.605469 50.789062 C 89.402344 48.574219 87.503906 47.371094 85.882812 46.785156 Z M 85.882812 46.785156 " fill-opacity="1" fill-rule="nonzero"/></g><g clip-path="url(#9656221509)"><path fill="#0e2776" d="M 20.125 70.824219 L 58.078125 70.824219 L 58.078125 88.5625 L 20.125 88.5625 Z M 20.125 70.824219 " fill-opacity="1" fill-rule="nonzero"/></g></svg>