<svg xmlns="http://www.w3.org/2000/svg" xmlns:xlink="http://www.w3.org/1999/xlink" width="500" zoomAndPan="magnify" viewBox="0 0 375 225" height="300" preserveAspectRatio="xMidYMid meet" version="1.0"><defs><g/><clipPath id="6dbbcd07fe"><path d="M 131 92 L 153 92 L 153 113.710938 L 131 113.710938 Z M 131 92 " clip-rule="nonzero"/></clipPath><clipPath id="1470441e81"><path d="M 133 86.710938 L 159.480469 86.710938 L 159.480469 110 L 133 110 Z M 133 86.710938 " clip-rule="nonzero"/></clipPath><clipPath id="7df3e78915"><path d="M 131 59 L 153 59 L 153 81.605469 L 131 81.605469 Z M 131 59 " clip-rule="nonzero"/></clipPath><clipPath id="e8141f5eb3"><path d="M 133 54.605469 L 159.480469 54.605469 L 159.480469 78 L 133 78 Z M 133 54.605469 " clip-rule="nonzero"/></clipPath><clipPath id="21b5c01121"><path d="M 131 27 L 153 27 L 153 49.5 L 131 49.5 Z M 131 27 " clip-rule="nonzero"/></clipPath><clipPath id="e668f94f2b"><path d="M 133 22.5 L 159.480469 22.5 L 159.480469 46 L 133 46 Z M 133 22.5 " clip-rule="nonzero"/></clipPath><clipPath id="a4ac367c8c"><path d="M 131 153 L 153 153 L 153 175.566406 L 131 175.566406 Z M 131 153 " clip-rule="nonzero"/></clipPath><clipPath id="ebe6542788"><path d="M 133 148.566406 L 159.480469 148.566406 L 159.480469 172 L 133 172 Z M 133 148.566406 " clip-rule="nonzero"/></clipPath><clipPath id="7a48d8497f"><path d="M 131 186 L 153 186 L 153 207.671875 L 131 207.671875 Z M 131 186 " clip-rule="nonzero"/></clipPath><clipPath id="dac5e6b227"><path d="M 133 180.671875 L 159.480469 180.671875 L 159.480469 204 L 133 204 Z M 133 180.671875 " clip-rule="nonzero"/></clipPath><clipPath id="9e42aeb22f"><path d="M 131 121 L 153 121 L 153 143.460938 L 131 143.460938 Z M 131 121 " clip-rule="nonzero"/></clipPath><clipPath id="9fef092d25"><path d="M 133 116.460938 L 159.480469 116.460938 L 159.480469 140 L 133 140 Z M 133 116.460938 " clip-rule="nonzero"/></clipPath></defs><path fill="#ffffff" d="M 151.8125 109.023438 C 151.8125 111.160156 150.078125 112.894531 147.941406 112.894531 L 135.558594 112.894531 C 133.421875 112.894531 131.6875 111.160156 131.6875 109.023438 L 131.6875 96.640625 C 131.6875 94.503906 133.421875 92.769531 135.558594 92.769531 L 147.941406 92.769531 C 150.078125 92.769531 151.8125 94.503906 151.8125 96.640625 Z M 151.8125 109.023438 " fill-opacity="1" fill-rule="nonzero"/><g clip-path="url(#6dbbcd07fe)"><path fill="#e01d5b" d="M 147.941406 113.582031 L 135.558594 113.582031 C 133.042969 113.582031 131 111.539062 131 109.023438 L 131 96.640625 C 131 94.125 133.042969 92.082031 135.558594 92.082031 L 147.941406 92.082031 C 150.457031 92.082031 152.5 94.125 152.5 96.640625 L 152.5 109.023438 C 152.5 111.539062 150.457031 113.582031 147.941406 113.582031 Z M 135.558594 93.460938 C 133.804688 93.460938 132.378906 94.886719 132.378906 96.640625 L 132.378906 109.023438 C 132.378906 110.777344 133.804688 112.203125 135.558594 112.203125 L 147.941406 112.203125 C 149.695312 112.203125 151.121094 110.777344 151.121094 109.023438 L 151.121094 96.640625 C 151.121094 94.890625 149.695312 93.460938 147.941406 93.460938 Z M 135.558594 93.460938 " fill-opacity="1" fill-rule="nonzero"/></g><g clip-path="url(#1470441e81)"><path fill="#0e2776" d="M 158.527344 86.710938 L 157.34375 87.3125 C 151.15625 90.460938 144.289062 97.746094 140.535156 103.90625 C 140.167969 103.21875 140.058594 102.996094 139.714844 102.242188 C 138.253906 99.613281 136.273438 97.265625 135.304688 96.363281 L 133.542969 96.847656 L 133.585938 96.953125 C 134.574219 98.363281 136.230469 101.421875 138.472656 107.984375 C 138.625 108.273438 138.789062 108.558594 138.984375 108.832031 C 139.496094 109.546875 140.089844 109.761719 140.5 109.816406 C 141.664062 109.96875 142.46875 109.136719 143.078125 108.125 C 147.605469 97.207031 155.828125 90.351562 159.296875 88.089844 Z M 158.527344 86.710938 " fill-opacity="1" fill-rule="nonzero"/></g><path fill="#ffffff" d="M 151.8125 76.917969 C 151.8125 79.054688 150.078125 80.785156 147.941406 80.785156 L 135.558594 80.785156 C 133.421875 80.785156 131.6875 79.054688 131.6875 76.917969 L 131.6875 64.535156 C 131.6875 62.398438 133.421875 60.664062 135.558594 60.664062 L 147.941406 60.664062 C 150.078125 60.664062 151.8125 62.398438 151.8125 64.535156 Z M 151.8125 76.917969 " fill-opacity="1" fill-rule="nonzero"/><g clip-path="url(#7df3e78915)"><path fill="#2dcf42" d="M 147.941406 81.476562 L 135.558594 81.476562 C 133.042969 81.476562 131 79.433594 131 76.917969 L 131 64.535156 C 131 62.019531 133.042969 59.972656 135.558594 59.972656 L 147.941406 59.972656 C 150.457031 59.972656 152.5 62.019531 152.5 64.535156 L 152.5 76.917969 C 152.5 79.433594 150.457031 81.476562 147.941406 81.476562 Z M 135.558594 61.355469 C 133.804688 61.355469 132.378906 62.78125 132.378906 64.535156 L 132.378906 76.917969 C 132.378906 78.671875 133.804688 80.097656 135.558594 80.097656 L 147.941406 80.097656 C 149.695312 80.097656 151.121094 78.671875 151.121094 76.917969 L 151.121094 64.535156 C 151.121094 62.78125 149.695312 61.355469 147.941406 61.355469 Z M 135.558594 61.355469 " fill-opacity="1" fill-rule="nonzero"/></g><g clip-path="url(#e8141f5eb3)"><path fill="#0e2776" d="M 158.527344 54.605469 L 157.34375 55.207031 C 151.15625 58.351562 144.289062 65.636719 140.535156 71.796875 C 140.167969 71.113281 140.058594 70.890625 139.714844 70.132812 C 138.253906 67.507812 136.273438 65.15625 135.304688 64.257812 L 133.542969 64.742188 L 133.585938 64.847656 C 134.574219 66.257812 136.230469 69.316406 138.472656 75.875 C 138.625 76.164062 138.789062 76.453125 138.984375 76.726562 C 139.496094 77.441406 140.089844 77.65625 140.5 77.710938 C 141.664062 77.859375 142.46875 77.03125 143.078125 76.019531 C 147.605469 65.097656 155.828125 58.246094 159.296875 55.984375 Z M 158.527344 54.605469 " fill-opacity="1" fill-rule="nonzero"/></g><path fill="#ffffff" d="M 151.8125 44.8125 C 151.8125 46.945312 150.078125 48.679688 147.941406 48.679688 L 135.558594 48.679688 C 133.421875 48.679688 131.6875 46.949219 131.6875 44.8125 L 131.6875 32.429688 C 131.6875 30.292969 133.421875 28.558594 135.558594 28.558594 L 147.941406 28.558594 C 150.078125 28.558594 151.8125 30.289062 151.8125 32.429688 Z M 151.8125 44.8125 " fill-opacity="1" fill-rule="nonzero"/><g clip-path="url(#21b5c01121)"><path fill="#2bb1eb" d="M 147.941406 49.371094 L 135.558594 49.371094 C 133.042969 49.371094 131 47.324219 131 44.8125 L 131 32.429688 C 131 29.914062 133.042969 27.867188 135.558594 27.867188 L 147.941406 27.867188 C 150.457031 27.867188 152.5 29.914062 152.5 32.429688 L 152.5 44.8125 C 152.5 47.324219 150.457031 49.371094 147.941406 49.371094 Z M 135.558594 29.25 C 133.804688 29.25 132.378906 30.675781 132.378906 32.425781 L 132.378906 44.8125 C 132.378906 46.566406 133.804688 47.988281 135.558594 47.988281 L 147.941406 47.988281 C 149.695312 47.988281 151.121094 46.566406 151.121094 44.8125 L 151.121094 32.429688 C 151.121094 30.675781 149.695312 29.25 147.941406 29.25 Z M 135.558594 29.25 " fill-opacity="1" fill-rule="nonzero"/></g><g clip-path="url(#e668f94f2b)"><path fill="#0e2776" d="M 158.527344 22.5 L 157.34375 23.101562 C 151.15625 26.246094 144.289062 33.53125 140.535156 39.691406 C 140.167969 39.007812 140.058594 38.785156 139.714844 38.027344 C 138.253906 35.402344 136.273438 33.050781 135.304688 32.152344 L 133.542969 32.632812 L 133.585938 32.738281 C 134.574219 34.148438 136.230469 37.210938 138.472656 43.769531 C 138.625 44.058594 138.789062 44.347656 138.984375 44.621094 C 139.496094 45.335938 140.089844 45.550781 140.5 45.601562 C 141.664062 45.753906 142.46875 44.925781 143.078125 43.914062 C 147.605469 32.992188 155.828125 26.140625 159.296875 23.875 Z M 158.527344 22.5 " fill-opacity="1" fill-rule="nonzero"/></g><g fill="#0e2776" fill-opacity="1"><g transform="translate(164.948607, 43.565154)"><g><path d="M 5.234375 -4.171875 L 3.359375 -4.171875 L 3.359375 0 L 1.015625 0 L 1.015625 -11.375 L 5.25 -11.375 C 6.59375 -11.375 7.628906 -11.070312 8.359375 -10.46875 C 9.085938 -9.875 9.453125 -9.03125 9.453125 -7.9375 C 9.453125 -7.164062 9.28125 -6.519531 8.9375 -6 C 8.601562 -5.476562 8.097656 -5.066406 7.421875 -4.765625 L 9.875 -0.109375 L 9.875 0 L 7.359375 0 Z M 3.359375 -6.0625 L 5.25 -6.0625 C 5.84375 -6.0625 6.300781 -6.210938 6.625 -6.515625 C 6.945312 -6.816406 7.109375 -7.226562 7.109375 -7.75 C 7.109375 -8.289062 6.953125 -8.710938 6.640625 -9.015625 C 6.335938 -9.328125 5.875 -9.484375 5.25 -9.484375 L 3.359375 -9.484375 Z M 3.359375 -6.0625 "/></g></g></g><g fill="#0e2776" fill-opacity="1"><g transform="translate(175.157057, 43.565154)"><g><path d="M 4.765625 0.15625 C 3.523438 0.15625 2.515625 -0.222656 1.734375 -0.984375 C 0.953125 -1.742188 0.5625 -2.757812 0.5625 -4.03125 L 0.5625 -4.25 C 0.5625 -5.09375 0.722656 -5.847656 1.046875 -6.515625 C 1.378906 -7.191406 1.847656 -7.707031 2.453125 -8.0625 C 3.054688 -8.425781 3.742188 -8.609375 4.515625 -8.609375 C 5.671875 -8.609375 6.578125 -8.242188 7.234375 -7.515625 C 7.898438 -6.785156 8.234375 -5.753906 8.234375 -4.421875 L 8.234375 -3.5 L 2.859375 -3.5 C 2.929688 -2.945312 3.148438 -2.503906 3.515625 -2.171875 C 3.878906 -1.835938 4.34375 -1.671875 4.90625 -1.671875 C 5.78125 -1.671875 6.460938 -1.984375 6.953125 -2.609375 L 8.0625 -1.375 C 7.71875 -0.894531 7.253906 -0.519531 6.671875 -0.25 C 6.097656 0.0195312 5.460938 0.15625 4.765625 0.15625 Z M 4.5 -6.78125 C 4.050781 -6.78125 3.6875 -6.628906 3.40625 -6.328125 C 3.132812 -6.023438 2.957031 -5.59375 2.875 -5.03125 L 6.015625 -5.03125 L 6.015625 -5.21875 C 6.003906 -5.71875 5.867188 -6.101562 5.609375 -6.375 C 5.347656 -6.644531 4.976562 -6.78125 4.5 -6.78125 Z M 4.5 -6.78125 "/></g></g></g><g fill="#0e2776" fill-opacity="1"><g transform="translate(183.803388, 43.565154)"><g><path d="M 8.484375 -4.15625 C 8.484375 -2.851562 8.1875 -1.804688 7.59375 -1.015625 C 7 -0.234375 6.203125 0.15625 5.203125 0.15625 C 4.347656 0.15625 3.65625 -0.140625 3.125 -0.734375 L 3.125 3.25 L 0.875 3.25 L 0.875 -8.453125 L 2.96875 -8.453125 L 3.046875 -7.625 C 3.585938 -8.28125 4.300781 -8.609375 5.1875 -8.609375 C 6.226562 -8.609375 7.035156 -8.222656 7.609375 -7.453125 C 8.191406 -6.679688 8.484375 -5.617188 8.484375 -4.265625 Z M 6.21875 -4.3125 C 6.21875 -5.101562 6.078125 -5.710938 5.796875 -6.140625 C 5.523438 -6.566406 5.125 -6.78125 4.59375 -6.78125 C 3.882812 -6.78125 3.394531 -6.507812 3.125 -5.96875 L 3.125 -2.5 C 3.40625 -1.945312 3.898438 -1.671875 4.609375 -1.671875 C 5.679688 -1.671875 6.21875 -2.550781 6.21875 -4.3125 Z M 6.21875 -4.3125 "/></g></g></g><g fill="#0e2776" fill-opacity="1"><g transform="translate(192.809007, 43.565154)"><g><path d="M 5.765625 0 C 5.660156 -0.207031 5.585938 -0.460938 5.546875 -0.765625 C 4.992188 -0.148438 4.28125 0.15625 3.40625 0.15625 C 2.582031 0.15625 1.894531 -0.0820312 1.34375 -0.5625 C 0.800781 -1.039062 0.53125 -1.644531 0.53125 -2.375 C 0.53125 -3.269531 0.863281 -3.957031 1.53125 -4.4375 C 2.195312 -4.914062 3.15625 -5.160156 4.40625 -5.171875 L 5.453125 -5.171875 L 5.453125 -5.65625 C 5.453125 -6.039062 5.347656 -6.347656 5.140625 -6.578125 C 4.941406 -6.816406 4.628906 -6.9375 4.203125 -6.9375 C 3.816406 -6.9375 3.515625 -6.84375 3.296875 -6.65625 C 3.085938 -6.476562 2.984375 -6.234375 2.984375 -5.921875 L 0.71875 -5.921875 C 0.71875 -6.410156 0.867188 -6.863281 1.171875 -7.28125 C 1.472656 -7.695312 1.898438 -8.019531 2.453125 -8.25 C 3.003906 -8.488281 3.625 -8.609375 4.3125 -8.609375 C 5.351562 -8.609375 6.179688 -8.347656 6.796875 -7.828125 C 7.410156 -7.304688 7.71875 -6.570312 7.71875 -5.625 L 7.71875 -1.953125 C 7.71875 -1.148438 7.828125 -0.546875 8.046875 -0.140625 L 8.046875 0 Z M 3.90625 -1.578125 C 4.238281 -1.578125 4.546875 -1.648438 4.828125 -1.796875 C 5.109375 -1.941406 5.316406 -2.140625 5.453125 -2.390625 L 5.453125 -3.84375 L 4.609375 -3.84375 C 3.472656 -3.84375 2.867188 -3.453125 2.796875 -2.671875 L 2.796875 -2.546875 C 2.796875 -2.265625 2.894531 -2.03125 3.09375 -1.84375 C 3.289062 -1.664062 3.5625 -1.578125 3.90625 -1.578125 Z M 3.90625 -1.578125 "/></g></g></g><g fill="#0e2776" fill-opacity="1"><g transform="translate(201.385037, 43.565154)"><g><path d="M 5.453125 -2.34375 C 5.453125 -2.613281 5.3125 -2.828125 5.03125 -2.984375 C 4.757812 -3.148438 4.320312 -3.296875 3.71875 -3.421875 C 1.707031 -3.835938 0.703125 -4.691406 0.703125 -5.984375 C 0.703125 -6.734375 1.015625 -7.359375 1.640625 -7.859375 C 2.265625 -8.359375 3.078125 -8.609375 4.078125 -8.609375 C 5.148438 -8.609375 6.007812 -8.351562 6.65625 -7.84375 C 7.300781 -7.34375 7.625 -6.691406 7.625 -5.890625 L 5.359375 -5.890625 C 5.359375 -6.210938 5.253906 -6.476562 5.046875 -6.6875 C 4.835938 -6.894531 4.515625 -7 4.078125 -7 C 3.691406 -7 3.394531 -6.910156 3.1875 -6.734375 C 2.976562 -6.566406 2.875 -6.351562 2.875 -6.09375 C 2.875 -5.84375 2.992188 -5.640625 3.234375 -5.484375 C 3.472656 -5.328125 3.875 -5.191406 4.4375 -5.078125 C 5 -4.972656 5.472656 -4.847656 5.859375 -4.703125 C 7.046875 -4.265625 7.640625 -3.507812 7.640625 -2.4375 C 7.640625 -1.664062 7.304688 -1.039062 6.640625 -0.5625 C 5.984375 -0.0820312 5.132812 0.15625 4.09375 0.15625 C 3.382812 0.15625 2.753906 0.03125 2.203125 -0.21875 C 1.648438 -0.476562 1.21875 -0.828125 0.90625 -1.265625 C 0.59375 -1.703125 0.4375 -2.175781 0.4375 -2.6875 L 2.578125 -2.6875 C 2.597656 -2.289062 2.742188 -1.984375 3.015625 -1.765625 C 3.296875 -1.554688 3.671875 -1.453125 4.140625 -1.453125 C 4.566406 -1.453125 4.890625 -1.53125 5.109375 -1.6875 C 5.335938 -1.851562 5.453125 -2.070312 5.453125 -2.34375 Z M 5.453125 -2.34375 "/></g></g></g><g fill="#0e2776" fill-opacity="1"><g transform="translate(164.948607, 75.115454)"><g><path d="M 10.28125 0 L 7.9375 0 L 7.9375 -4.875 L 3.359375 -4.875 L 3.359375 0 L 1.015625 0 L 1.015625 -11.375 L 3.359375 -11.375 L 3.359375 -6.765625 L 7.9375 -6.765625 L 7.9375 -11.375 L 10.28125 -11.375 Z M 10.28125 0 "/></g></g></g><g fill="#0e2776" fill-opacity="1"><g transform="translate(176.25054, 75.115454)"><g><path d="M 4.03125 -3.203125 L 5.59375 -8.453125 L 8.015625 -8.453125 L 4.609375 1.3125 L 4.421875 1.765625 C 3.921875 2.867188 3.085938 3.421875 1.921875 3.421875 C 1.597656 3.421875 1.265625 3.367188 0.921875 3.265625 L 0.921875 1.5625 L 1.265625 1.5625 C 1.691406 1.5625 2.007812 1.492188 2.21875 1.359375 C 2.4375 1.234375 2.601562 1.019531 2.71875 0.71875 L 2.984375 0.03125 L 0.03125 -8.453125 L 2.453125 -8.453125 Z M 4.03125 -3.203125 "/></g></g></g><g fill="#0e2776" fill-opacity="1"><g transform="translate(184.279828, 75.115454)"><g><path d="M 0.546875 -4.296875 C 0.546875 -5.585938 0.851562 -6.628906 1.46875 -7.421875 C 2.082031 -8.210938 2.914062 -8.609375 3.96875 -8.609375 C 4.894531 -8.609375 5.613281 -8.289062 6.125 -7.65625 L 6.21875 -8.453125 L 8.265625 -8.453125 L 8.265625 -0.28125 C 8.265625 0.457031 8.097656 1.097656 7.765625 1.640625 C 7.429688 2.191406 6.957031 2.609375 6.34375 2.890625 C 5.738281 3.179688 5.023438 3.328125 4.203125 3.328125 C 3.585938 3.328125 2.984375 3.203125 2.390625 2.953125 C 1.804688 2.710938 1.363281 2.394531 1.0625 2 L 2.0625 0.625 C 2.625 1.257812 3.304688 1.578125 4.109375 1.578125 C 4.703125 1.578125 5.164062 1.414062 5.5 1.09375 C 5.832031 0.769531 6 0.3125 6 -0.28125 L 6 -0.734375 C 5.476562 -0.140625 4.796875 0.15625 3.953125 0.15625 C 2.929688 0.15625 2.109375 -0.238281 1.484375 -1.03125 C 0.859375 -1.832031 0.546875 -2.890625 0.546875 -4.203125 Z M 2.796875 -4.125 C 2.796875 -3.363281 2.945312 -2.765625 3.25 -2.328125 C 3.5625 -1.890625 3.988281 -1.671875 4.53125 -1.671875 C 5.21875 -1.671875 5.707031 -1.929688 6 -2.453125 L 6 -6 C 5.695312 -6.519531 5.210938 -6.78125 4.546875 -6.78125 C 4.003906 -6.78125 3.578125 -6.554688 3.265625 -6.109375 C 2.953125 -5.671875 2.796875 -5.007812 2.796875 -4.125 Z M 2.796875 -4.125 "/></g></g></g><g fill="#0e2776" fill-opacity="1"><g transform="translate(193.410417, 75.115454)"><g><path d="M 3.25 0 L 0.984375 0 L 0.984375 -8.453125 L 3.25 -8.453125 Z M 0.859375 -10.640625 C 0.859375 -10.984375 0.96875 -11.265625 1.1875 -11.484375 C 1.414062 -11.703125 1.726562 -11.8125 2.125 -11.8125 C 2.507812 -11.8125 2.816406 -11.703125 3.046875 -11.484375 C 3.273438 -11.265625 3.390625 -10.984375 3.390625 -10.640625 C 3.390625 -10.296875 3.269531 -10.015625 3.03125 -9.796875 C 2.800781 -9.578125 2.492188 -9.46875 2.109375 -9.46875 C 1.734375 -9.46875 1.429688 -9.578125 1.203125 -9.796875 C 0.972656 -10.015625 0.859375 -10.296875 0.859375 -10.640625 Z M 0.859375 -10.640625 "/></g></g></g><g fill="#0e2776" fill-opacity="1"><g transform="translate(197.651574, 75.115454)"><g><path d="M 4.765625 0.15625 C 3.523438 0.15625 2.515625 -0.222656 1.734375 -0.984375 C 0.953125 -1.742188 0.5625 -2.757812 0.5625 -4.03125 L 0.5625 -4.25 C 0.5625 -5.09375 0.722656 -5.847656 1.046875 -6.515625 C 1.378906 -7.191406 1.847656 -7.707031 2.453125 -8.0625 C 3.054688 -8.425781 3.742188 -8.609375 4.515625 -8.609375 C 5.671875 -8.609375 6.578125 -8.242188 7.234375 -7.515625 C 7.898438 -6.785156 8.234375 -5.753906 8.234375 -4.421875 L 8.234375 -3.5 L 2.859375 -3.5 C 2.929688 -2.945312 3.148438 -2.503906 3.515625 -2.171875 C 3.878906 -1.835938 4.34375 -1.671875 4.90625 -1.671875 C 5.78125 -1.671875 6.460938 -1.984375 6.953125 -2.609375 L 8.0625 -1.375 C 7.71875 -0.894531 7.253906 -0.519531 6.671875 -0.25 C 6.097656 0.0195312 5.460938 0.15625 4.765625 0.15625 Z M 4.5 -6.78125 C 4.050781 -6.78125 3.6875 -6.628906 3.40625 -6.328125 C 3.132812 -6.023438 2.957031 -5.59375 2.875 -5.03125 L 6.015625 -5.03125 L 6.015625 -5.21875 C 6.003906 -5.71875 5.867188 -6.101562 5.609375 -6.375 C 5.347656 -6.644531 4.976562 -6.78125 4.5 -6.78125 Z M 5.390625 -9.578125 L 3.53125 -9.578125 L 1.375 -12 L 3.84375 -12 Z M 5.390625 -9.578125 "/></g></g></g><g fill="#0e2776" fill-opacity="1"><g transform="translate(206.297905, 75.115454)"><g><path d="M 2.953125 -8.453125 L 3.015625 -7.484375 C 3.617188 -8.234375 4.429688 -8.609375 5.453125 -8.609375 C 6.347656 -8.609375 7.015625 -8.34375 7.453125 -7.8125 C 7.890625 -7.289062 8.113281 -6.507812 8.125 -5.46875 L 8.125 0 L 5.859375 0 L 5.859375 -5.40625 C 5.859375 -5.882812 5.753906 -6.234375 5.546875 -6.453125 C 5.335938 -6.671875 4.992188 -6.78125 4.515625 -6.78125 C 3.878906 -6.78125 3.398438 -6.507812 3.078125 -5.96875 L 3.078125 0 L 0.828125 0 L 0.828125 -8.453125 Z M 2.953125 -8.453125 "/></g></g></g><g fill="#0e2776" fill-opacity="1"><g transform="translate(215.25666, 75.115454)"><g><path d="M 4.765625 0.15625 C 3.523438 0.15625 2.515625 -0.222656 1.734375 -0.984375 C 0.953125 -1.742188 0.5625 -2.757812 0.5625 -4.03125 L 0.5625 -4.25 C 0.5625 -5.09375 0.722656 -5.847656 1.046875 -6.515625 C 1.378906 -7.191406 1.847656 -7.707031 2.453125 -8.0625 C 3.054688 -8.425781 3.742188 -8.609375 4.515625 -8.609375 C 5.671875 -8.609375 6.578125 -8.242188 7.234375 -7.515625 C 7.898438 -6.785156 8.234375 -5.753906 8.234375 -4.421875 L 8.234375 -3.5 L 2.859375 -3.5 C 2.929688 -2.945312 3.148438 -2.503906 3.515625 -2.171875 C 3.878906 -1.835938 4.34375 -1.671875 4.90625 -1.671875 C 5.78125 -1.671875 6.460938 -1.984375 6.953125 -2.609375 L 8.0625 -1.375 C 7.71875 -0.894531 7.253906 -0.519531 6.671875 -0.25 C 6.097656 0.0195312 5.460938 0.15625 4.765625 0.15625 Z M 4.5 -6.78125 C 4.050781 -6.78125 3.6875 -6.628906 3.40625 -6.328125 C 3.132812 -6.023438 2.957031 -5.59375 2.875 -5.03125 L 6.015625 -5.03125 L 6.015625 -5.21875 C 6.003906 -5.71875 5.867188 -6.101562 5.609375 -6.375 C 5.347656 -6.644531 4.976562 -6.78125 4.5 -6.78125 Z M 4.5 -6.78125 "/></g></g></g><g fill="#0e2776" fill-opacity="1"><g transform="translate(164.948607, 109.2053)"><g><path d="M 6.921875 -2.984375 C 6.921875 -3.429688 6.765625 -3.769531 6.453125 -4 C 6.140625 -4.238281 5.578125 -4.488281 4.765625 -4.75 C 3.953125 -5.019531 3.304688 -5.28125 2.828125 -5.53125 C 1.535156 -6.226562 0.890625 -7.171875 0.890625 -8.359375 C 0.890625 -8.972656 1.0625 -9.519531 1.40625 -10 C 1.757812 -10.476562 2.257812 -10.851562 2.90625 -11.125 C 3.550781 -11.394531 4.28125 -11.53125 5.09375 -11.53125 C 5.90625 -11.53125 6.628906 -11.382812 7.265625 -11.09375 C 7.898438 -10.800781 8.390625 -10.382812 8.734375 -9.84375 C 9.085938 -9.3125 9.265625 -8.703125 9.265625 -8.015625 L 6.921875 -8.015625 C 6.921875 -8.535156 6.753906 -8.941406 6.421875 -9.234375 C 6.097656 -9.523438 5.640625 -9.671875 5.046875 -9.671875 C 4.472656 -9.671875 4.023438 -9.546875 3.703125 -9.296875 C 3.390625 -9.054688 3.234375 -8.738281 3.234375 -8.34375 C 3.234375 -7.976562 3.421875 -7.671875 3.796875 -7.421875 C 4.171875 -7.171875 4.71875 -6.9375 5.4375 -6.71875 C 6.769531 -6.3125 7.738281 -5.8125 8.34375 -5.21875 C 8.957031 -4.625 9.265625 -3.882812 9.265625 -3 C 9.265625 -2.019531 8.890625 -1.25 8.140625 -0.6875 C 7.398438 -0.125 6.398438 0.15625 5.140625 0.15625 C 4.265625 0.15625 3.46875 -0.00390625 2.75 -0.328125 C 2.03125 -0.648438 1.484375 -1.085938 1.109375 -1.640625 C 0.734375 -2.203125 0.546875 -2.847656 0.546875 -3.578125 L 2.890625 -3.578125 C 2.890625 -2.328125 3.640625 -1.703125 5.140625 -1.703125 C 5.703125 -1.703125 6.140625 -1.8125 6.453125 -2.03125 C 6.765625 -2.257812 6.921875 -2.578125 6.921875 -2.984375 Z M 6.921875 -2.984375 "/></g></g></g><g fill="#0e2776" fill-opacity="1"><g transform="translate(174.782148, 109.2053)"><g><path d="M 0.515625 -4.3125 C 0.515625 -5.144531 0.675781 -5.890625 1 -6.546875 C 1.320312 -7.203125 1.785156 -7.707031 2.390625 -8.0625 C 3.003906 -8.425781 3.710938 -8.609375 4.515625 -8.609375 C 5.648438 -8.609375 6.578125 -8.257812 7.296875 -7.5625 C 8.023438 -6.863281 8.429688 -5.914062 8.515625 -4.71875 L 8.53125 -4.140625 C 8.53125 -2.847656 8.164062 -1.804688 7.4375 -1.015625 C 6.71875 -0.234375 5.75 0.15625 4.53125 0.15625 C 3.3125 0.15625 2.335938 -0.234375 1.609375 -1.015625 C 0.878906 -1.796875 0.515625 -2.859375 0.515625 -4.203125 Z M 2.78125 -4.140625 C 2.78125 -3.335938 2.929688 -2.722656 3.234375 -2.296875 C 3.535156 -1.878906 3.96875 -1.671875 4.53125 -1.671875 C 5.070312 -1.671875 5.492188 -1.878906 5.796875 -2.296875 C 6.109375 -2.710938 6.265625 -3.382812 6.265625 -4.3125 C 6.265625 -5.09375 6.109375 -5.695312 5.796875 -6.125 C 5.492188 -6.5625 5.066406 -6.78125 4.515625 -6.78125 C 3.960938 -6.78125 3.535156 -6.566406 3.234375 -6.140625 C 2.929688 -5.710938 2.78125 -5.046875 2.78125 -4.140625 Z M 2.78125 -4.140625 "/></g></g></g><g fill="#0e2776" fill-opacity="1"><g transform="translate(183.826814, 109.2053)"><g><path d="M 2.984375 -8.453125 L 3.0625 -7.515625 C 3.65625 -8.242188 4.460938 -8.609375 5.484375 -8.609375 C 6.578125 -8.609375 7.328125 -8.179688 7.734375 -7.328125 C 8.328125 -8.179688 9.171875 -8.609375 10.265625 -8.609375 C 11.179688 -8.609375 11.863281 -8.34375 12.3125 -7.8125 C 12.757812 -7.28125 12.984375 -6.476562 12.984375 -5.40625 L 12.984375 0 L 10.71875 0 L 10.71875 -5.390625 C 10.71875 -5.867188 10.625 -6.21875 10.4375 -6.4375 C 10.25 -6.664062 9.921875 -6.78125 9.453125 -6.78125 C 8.773438 -6.78125 8.304688 -6.457031 8.046875 -5.8125 L 8.046875 0 L 5.796875 0 L 5.796875 -5.390625 C 5.796875 -5.878906 5.695312 -6.234375 5.5 -6.453125 C 5.3125 -6.671875 4.984375 -6.78125 4.515625 -6.78125 C 3.878906 -6.78125 3.414062 -6.515625 3.125 -5.984375 L 3.125 0 L 0.875 0 L 0.875 -8.453125 Z M 2.984375 -8.453125 "/></g></g></g><g fill="#0e2776" fill-opacity="1"><g transform="translate(197.675, 109.2053)"><g><path d="M 2.984375 -8.453125 L 3.0625 -7.515625 C 3.65625 -8.242188 4.460938 -8.609375 5.484375 -8.609375 C 6.578125 -8.609375 7.328125 -8.179688 7.734375 -7.328125 C 8.328125 -8.179688 9.171875 -8.609375 10.265625 -8.609375 C 11.179688 -8.609375 11.863281 -8.34375 12.3125 -7.8125 C 12.757812 -7.28125 12.984375 -6.476562 12.984375 -5.40625 L 12.984375 0 L 10.71875 0 L 10.71875 -5.390625 C 10.71875 -5.867188 10.625 -6.21875 10.4375 -6.4375 C 10.25 -6.664062 9.921875 -6.78125 9.453125 -6.78125 C 8.773438 -6.78125 8.304688 -6.457031 8.046875 -5.8125 L 8.046875 0 L 5.796875 0 L 5.796875 -5.390625 C 5.796875 -5.878906 5.695312 -6.234375 5.5 -6.453125 C 5.3125 -6.671875 4.984375 -6.78125 4.515625 -6.78125 C 3.878906 -6.78125 3.414062 -6.515625 3.125 -5.984375 L 3.125 0 L 0.875 0 L 0.875 -8.453125 Z M 2.984375 -8.453125 "/></g></g></g><g fill="#0e2776" fill-opacity="1"><g transform="translate(211.523187, 109.2053)"><g><path d="M 4.765625 0.15625 C 3.523438 0.15625 2.515625 -0.222656 1.734375 -0.984375 C 0.953125 -1.742188 0.5625 -2.757812 0.5625 -4.03125 L 0.5625 -4.25 C 0.5625 -5.09375 0.722656 -5.847656 1.046875 -6.515625 C 1.378906 -7.191406 1.847656 -7.707031 2.453125 -8.0625 C 3.054688 -8.425781 3.742188 -8.609375 4.515625 -8.609375 C 5.671875 -8.609375 6.578125 -8.242188 7.234375 -7.515625 C 7.898438 -6.785156 8.234375 -5.753906 8.234375 -4.421875 L 8.234375 -3.5 L 2.859375 -3.5 C 2.929688 -2.945312 3.148438 -2.503906 3.515625 -2.171875 C 3.878906 -1.835938 4.34375 -1.671875 4.90625 -1.671875 C 5.78125 -1.671875 6.460938 -1.984375 6.953125 -2.609375 L 8.0625 -1.375 C 7.71875 -0.894531 7.253906 -0.519531 6.671875 -0.25 C 6.097656 0.0195312 5.460938 0.15625 4.765625 0.15625 Z M 4.5 -6.78125 C 4.050781 -6.78125 3.6875 -6.628906 3.40625 -6.328125 C 3.132812 -6.023438 2.957031 -5.59375 2.875 -5.03125 L 6.015625 -5.03125 L 6.015625 -5.21875 C 6.003906 -5.71875 5.867188 -6.101562 5.609375 -6.375 C 5.347656 -6.644531 4.976562 -6.78125 4.5 -6.78125 Z M 4.5 -6.78125 "/></g></g></g><g fill="#0e2776" fill-opacity="1"><g transform="translate(220.169518, 109.2053)"><g><path d="M 3.25 0 L 0.984375 0 L 0.984375 -8.453125 L 3.25 -8.453125 Z M 0.859375 -10.640625 C 0.859375 -10.984375 0.96875 -11.265625 1.1875 -11.484375 C 1.414062 -11.703125 1.726562 -11.8125 2.125 -11.8125 C 2.507812 -11.8125 2.816406 -11.703125 3.046875 -11.484375 C 3.273438 -11.265625 3.390625 -10.984375 3.390625 -10.640625 C 3.390625 -10.296875 3.269531 -10.015625 3.03125 -9.796875 C 2.800781 -9.578125 2.492188 -9.46875 2.109375 -9.46875 C 1.734375 -9.46875 1.429688 -9.578125 1.203125 -9.796875 C 0.972656 -10.015625 0.859375 -10.296875 0.859375 -10.640625 Z M 0.859375 -10.640625 "/></g></g></g><g fill="#0e2776" fill-opacity="1"><g transform="translate(224.410675, 109.2053)"><g><path d="M 3.25 0 L 0.984375 0 L 0.984375 -12 L 3.25 -12 Z M 3.25 0 "/></g></g></g><path fill="#ffffff" d="M 151.8125 170.878906 C 151.8125 173.011719 150.078125 174.746094 147.941406 174.746094 L 135.558594 174.746094 C 133.421875 174.746094 131.6875 173.015625 131.6875 170.878906 L 131.6875 158.496094 C 131.6875 156.359375 133.421875 154.625 135.558594 154.625 L 147.941406 154.625 C 150.078125 154.625 151.8125 156.355469 151.8125 158.496094 Z M 151.8125 170.878906 " fill-opacity="1" fill-rule="nonzero"/><g clip-path="url(#a4ac367c8c)"><path fill="#0e2776" d="M 147.941406 175.4375 L 135.558594 175.4375 C 133.042969 175.4375 131 173.394531 131 170.878906 L 131 158.496094 C 131 155.980469 133.042969 153.933594 135.558594 153.933594 L 147.941406 153.933594 C 150.457031 153.933594 152.5 155.980469 152.5 158.496094 L 152.5 170.878906 C 152.5 173.394531 150.457031 175.4375 147.941406 175.4375 Z M 135.558594 155.316406 C 133.804688 155.316406 132.378906 156.742188 132.378906 158.496094 L 132.378906 170.878906 C 132.378906 172.632812 133.804688 174.058594 135.558594 174.058594 L 147.941406 174.058594 C 149.695312 174.058594 151.121094 172.632812 151.121094 170.878906 L 151.121094 158.496094 C 151.121094 156.742188 149.695312 155.316406 147.941406 155.316406 Z M 135.558594 155.316406 " fill-opacity="1" fill-rule="nonzero"/></g><g clip-path="url(#ebe6542788)"><path fill="#0e2776" d="M 158.527344 148.566406 L 157.34375 149.167969 C 151.15625 152.3125 144.289062 159.597656 140.535156 165.757812 C 140.167969 165.074219 140.058594 164.851562 139.714844 164.09375 C 138.253906 161.46875 136.273438 159.117188 135.304688 158.21875 L 133.542969 158.699219 L 133.585938 158.804688 C 134.574219 160.21875 136.230469 163.277344 138.472656 169.835938 C 138.625 170.125 138.789062 170.414062 138.984375 170.6875 C 139.496094 171.402344 140.089844 171.617188 140.5 171.671875 C 141.664062 171.820312 142.46875 170.992188 143.078125 169.980469 C 147.605469 159.058594 155.828125 152.207031 159.296875 149.941406 Z M 158.527344 148.566406 " fill-opacity="1" fill-rule="nonzero"/></g><path fill="#ffffff" d="M 151.8125 202.984375 C 151.8125 205.121094 150.078125 206.855469 147.941406 206.855469 L 135.558594 206.855469 C 133.421875 206.855469 131.6875 205.121094 131.6875 202.984375 L 131.6875 190.601562 C 131.6875 188.464844 133.421875 186.730469 135.558594 186.730469 L 147.941406 186.730469 C 150.078125 186.730469 151.8125 188.464844 151.8125 190.601562 Z M 151.8125 202.984375 " fill-opacity="1" fill-rule="nonzero"/><g clip-path="url(#7a48d8497f)"><path fill="#efd109" d="M 147.941406 207.542969 L 135.558594 207.542969 C 133.042969 207.542969 131 205.5 131 202.984375 L 131 190.601562 C 131 188.085938 133.042969 186.042969 135.558594 186.042969 L 147.941406 186.042969 C 150.457031 186.042969 152.5 188.085938 152.5 190.601562 L 152.5 202.984375 C 152.5 205.5 150.457031 207.542969 147.941406 207.542969 Z M 135.558594 187.421875 C 133.804688 187.421875 132.378906 188.847656 132.378906 190.601562 L 132.378906 202.984375 C 132.378906 204.738281 133.804688 206.164062 135.558594 206.164062 L 147.941406 206.164062 C 149.695312 206.164062 151.121094 204.738281 151.121094 202.984375 L 151.121094 190.601562 C 151.121094 188.847656 149.695312 187.421875 147.941406 187.421875 Z M 135.558594 187.421875 " fill-opacity="1" fill-rule="nonzero"/></g><g clip-path="url(#dac5e6b227)"><path fill="#0e2776" d="M 158.527344 180.671875 L 157.34375 181.273438 C 151.15625 184.417969 144.289062 191.703125 140.535156 197.867188 C 140.167969 197.179688 140.058594 196.957031 139.714844 196.199219 C 138.253906 193.574219 136.273438 191.226562 135.304688 190.324219 L 133.542969 190.808594 L 133.585938 190.914062 C 134.574219 192.324219 136.230469 195.382812 138.472656 201.941406 C 138.625 202.234375 138.789062 202.519531 138.984375 202.792969 C 139.496094 203.507812 140.089844 203.722656 140.5 203.777344 C 141.664062 203.925781 142.46875 203.097656 143.078125 202.085938 C 147.605469 191.164062 155.828125 184.3125 159.296875 182.050781 Z M 158.527344 180.671875 " fill-opacity="1" fill-rule="nonzero"/></g><path fill="#ffffff" d="M 151.8125 138.773438 C 151.8125 140.90625 150.078125 142.640625 147.941406 142.640625 L 135.558594 142.640625 C 133.421875 142.640625 131.6875 140.90625 131.6875 138.773438 L 131.6875 126.386719 C 131.6875 124.253906 133.421875 122.519531 135.558594 122.519531 L 147.941406 122.519531 C 150.078125 122.519531 151.8125 124.25 151.8125 126.386719 Z M 151.8125 138.773438 " fill-opacity="1" fill-rule="nonzero"/><g clip-path="url(#9e42aeb22f)"><path fill="#ed6c24" d="M 147.941406 143.332031 L 135.558594 143.332031 C 133.042969 143.332031 131 141.285156 131 138.773438 L 131 126.386719 C 131 123.875 133.042969 121.828125 135.558594 121.828125 L 147.941406 121.828125 C 150.457031 121.828125 152.5 123.875 152.5 126.386719 L 152.5 138.773438 C 152.5 141.285156 150.457031 143.332031 147.941406 143.332031 Z M 135.558594 123.207031 C 133.804688 123.207031 132.378906 124.636719 132.378906 126.386719 L 132.378906 138.773438 C 132.378906 140.523438 133.804688 141.949219 135.558594 141.949219 L 147.941406 141.949219 C 149.695312 141.949219 151.121094 140.523438 151.121094 138.773438 L 151.121094 126.386719 C 151.121094 124.636719 149.695312 123.210938 147.941406 123.210938 Z M 135.558594 123.207031 " fill-opacity="1" fill-rule="nonzero"/></g><g clip-path="url(#9fef092d25)"><path fill="#0e2776" d="M 158.527344 116.460938 L 157.34375 117.0625 C 151.15625 120.207031 144.289062 127.492188 140.535156 133.652344 C 140.167969 132.96875 140.058594 132.742188 139.714844 131.988281 C 138.253906 129.359375 136.273438 127.011719 135.304688 126.113281 L 133.542969 126.59375 L 133.585938 126.699219 C 134.574219 128.109375 136.230469 131.171875 138.472656 137.730469 C 138.625 138.019531 138.789062 138.308594 138.984375 138.578125 C 139.496094 139.296875 140.089844 139.511719 140.5 139.5625 C 141.664062 139.714844 142.46875 138.886719 143.078125 137.871094 C 147.605469 126.953125 155.828125 120.101562 159.296875 117.835938 Z M 158.527344 116.460938 " fill-opacity="1" fill-rule="nonzero"/></g><g fill="#0e2776" fill-opacity="1"><g transform="translate(164.5739, 137.525601)"><g><path d="M 10.28125 0 L 7.9375 0 L 7.9375 -4.875 L 3.359375 -4.875 L 3.359375 0 L 1.015625 0 L 1.015625 -11.375 L 3.359375 -11.375 L 3.359375 -6.765625 L 7.9375 -6.765625 L 7.9375 -11.375 L 10.28125 -11.375 Z M 10.28125 0 "/></g></g></g><g fill="#0e2776" fill-opacity="1"><g transform="translate(175.875832, 137.525601)"><g><path d="M 5.765625 0 C 5.660156 -0.207031 5.585938 -0.460938 5.546875 -0.765625 C 4.992188 -0.148438 4.28125 0.15625 3.40625 0.15625 C 2.582031 0.15625 1.894531 -0.0820312 1.34375 -0.5625 C 0.800781 -1.039062 0.53125 -1.644531 0.53125 -2.375 C 0.53125 -3.269531 0.863281 -3.957031 1.53125 -4.4375 C 2.195312 -4.914062 3.15625 -5.160156 4.40625 -5.171875 L 5.453125 -5.171875 L 5.453125 -5.65625 C 5.453125 -6.039062 5.347656 -6.347656 5.140625 -6.578125 C 4.941406 -6.816406 4.628906 -6.9375 4.203125 -6.9375 C 3.816406 -6.9375 3.515625 -6.84375 3.296875 -6.65625 C 3.085938 -6.476562 2.984375 -6.234375 2.984375 -5.921875 L 0.71875 -5.921875 C 0.71875 -6.410156 0.867188 -6.863281 1.171875 -7.28125 C 1.472656 -7.695312 1.898438 -8.019531 2.453125 -8.25 C 3.003906 -8.488281 3.625 -8.609375 4.3125 -8.609375 C 5.351562 -8.609375 6.179688 -8.347656 6.796875 -7.828125 C 7.410156 -7.304688 7.71875 -6.570312 7.71875 -5.625 L 7.71875 -1.953125 C 7.71875 -1.148438 7.828125 -0.546875 8.046875 -0.140625 L 8.046875 0 Z M 3.90625 -1.578125 C 4.238281 -1.578125 4.546875 -1.648438 4.828125 -1.796875 C 5.109375 -1.941406 5.316406 -2.140625 5.453125 -2.390625 L 5.453125 -3.84375 L 4.609375 -3.84375 C 3.472656 -3.84375 2.867188 -3.453125 2.796875 -2.671875 L 2.796875 -2.546875 C 2.796875 -2.265625 2.894531 -2.03125 3.09375 -1.84375 C 3.289062 -1.664062 3.5625 -1.578125 3.90625 -1.578125 Z M 3.90625 -1.578125 "/></g></g></g><g fill="#0e2776" fill-opacity="1"><g transform="translate(184.451863, 137.525601)"><g><path d="M 8.484375 -4.15625 C 8.484375 -2.800781 8.191406 -1.742188 7.609375 -0.984375 C 7.035156 -0.222656 6.234375 0.15625 5.203125 0.15625 C 4.285156 0.15625 3.550781 -0.195312 3 -0.90625 L 2.90625 0 L 0.875 0 L 0.875 -12 L 3.125 -12 L 3.125 -7.703125 C 3.644531 -8.304688 4.332031 -8.609375 5.1875 -8.609375 C 6.21875 -8.609375 7.023438 -8.226562 7.609375 -7.46875 C 8.191406 -6.71875 8.484375 -5.65625 8.484375 -4.28125 Z M 6.234375 -4.3125 C 6.234375 -5.164062 6.097656 -5.789062 5.828125 -6.1875 C 5.554688 -6.582031 5.148438 -6.78125 4.609375 -6.78125 C 3.890625 -6.78125 3.394531 -6.484375 3.125 -5.890625 L 3.125 -2.5625 C 3.40625 -1.96875 3.90625 -1.671875 4.625 -1.671875 C 5.351562 -1.671875 5.832031 -2.03125 6.0625 -2.75 C 6.175781 -3.09375 6.234375 -3.613281 6.234375 -4.3125 Z M 6.234375 -4.3125 "/></g></g></g><g fill="#0e2776" fill-opacity="1"><g transform="translate(193.457481, 137.525601)"><g><path d="M 3.25 0 L 0.984375 0 L 0.984375 -8.453125 L 3.25 -8.453125 Z M 0.859375 -10.640625 C 0.859375 -10.984375 0.96875 -11.265625 1.1875 -11.484375 C 1.414062 -11.703125 1.726562 -11.8125 2.125 -11.8125 C 2.507812 -11.8125 2.816406 -11.703125 3.046875 -11.484375 C 3.273438 -11.265625 3.390625 -10.984375 3.390625 -10.640625 C 3.390625 -10.296875 3.269531 -10.015625 3.03125 -9.796875 C 2.800781 -9.578125 2.492188 -9.46875 2.109375 -9.46875 C 1.734375 -9.46875 1.429688 -9.578125 1.203125 -9.796875 C 0.972656 -10.015625 0.859375 -10.296875 0.859375 -10.640625 Z M 0.859375 -10.640625 "/></g></g></g><g fill="#0e2776" fill-opacity="1"><g transform="translate(197.698639, 137.525601)"><g><path d="M 3.25 0 L 0.984375 0 L 0.984375 -12 L 3.25 -12 Z M 3.25 0 "/></g></g></g><g fill="#0e2776" fill-opacity="1"><g transform="translate(201.939796, 137.525601)"><g><path d="M 3.25 0 L 0.984375 0 L 0.984375 -12 L 3.25 -12 Z M 3.25 0 "/></g></g></g><g fill="#0e2776" fill-opacity="1"><g transform="translate(206.180953, 137.525601)"><g><path d="M 5.765625 0 C 5.660156 -0.207031 5.585938 -0.460938 5.546875 -0.765625 C 4.992188 -0.148438 4.28125 0.15625 3.40625 0.15625 C 2.582031 0.15625 1.894531 -0.0820312 1.34375 -0.5625 C 0.800781 -1.039062 0.53125 -1.644531 0.53125 -2.375 C 0.53125 -3.269531 0.863281 -3.957031 1.53125 -4.4375 C 2.195312 -4.914062 3.15625 -5.160156 4.40625 -5.171875 L 5.453125 -5.171875 L 5.453125 -5.65625 C 5.453125 -6.039062 5.347656 -6.347656 5.140625 -6.578125 C 4.941406 -6.816406 4.628906 -6.9375 4.203125 -6.9375 C 3.816406 -6.9375 3.515625 -6.84375 3.296875 -6.65625 C 3.085938 -6.476562 2.984375 -6.234375 2.984375 -5.921875 L 0.71875 -5.921875 C 0.71875 -6.410156 0.867188 -6.863281 1.171875 -7.28125 C 1.472656 -7.695312 1.898438 -8.019531 2.453125 -8.25 C 3.003906 -8.488281 3.625 -8.609375 4.3125 -8.609375 C 5.351562 -8.609375 6.179688 -8.347656 6.796875 -7.828125 C 7.410156 -7.304688 7.71875 -6.570312 7.71875 -5.625 L 7.71875 -1.953125 C 7.71875 -1.148438 7.828125 -0.546875 8.046875 -0.140625 L 8.046875 0 Z M 3.90625 -1.578125 C 4.238281 -1.578125 4.546875 -1.648438 4.828125 -1.796875 C 5.109375 -1.941406 5.316406 -2.140625 5.453125 -2.390625 L 5.453125 -3.84375 L 4.609375 -3.84375 C 3.472656 -3.84375 2.867188 -3.453125 2.796875 -2.671875 L 2.796875 -2.546875 C 2.796875 -2.265625 2.894531 -2.03125 3.09375 -1.84375 C 3.289062 -1.664062 3.5625 -1.578125 3.90625 -1.578125 Z M 3.90625 -1.578125 "/></g></g></g><g fill="#0e2776" fill-opacity="1"><g transform="translate(214.756984, 137.525601)"><g><path d="M 0.546875 -4.296875 C 0.546875 -5.585938 0.851562 -6.628906 1.46875 -7.421875 C 2.082031 -8.210938 2.914062 -8.609375 3.96875 -8.609375 C 4.894531 -8.609375 5.613281 -8.289062 6.125 -7.65625 L 6.21875 -8.453125 L 8.265625 -8.453125 L 8.265625 -0.28125 C 8.265625 0.457031 8.097656 1.097656 7.765625 1.640625 C 7.429688 2.191406 6.957031 2.609375 6.34375 2.890625 C 5.738281 3.179688 5.023438 3.328125 4.203125 3.328125 C 3.585938 3.328125 2.984375 3.203125 2.390625 2.953125 C 1.804688 2.710938 1.363281 2.394531 1.0625 2 L 2.0625 0.625 C 2.625 1.257812 3.304688 1.578125 4.109375 1.578125 C 4.703125 1.578125 5.164062 1.414062 5.5 1.09375 C 5.832031 0.769531 6 0.3125 6 -0.28125 L 6 -0.734375 C 5.476562 -0.140625 4.796875 0.15625 3.953125 0.15625 C 2.929688 0.15625 2.109375 -0.238281 1.484375 -1.03125 C 0.859375 -1.832031 0.546875 -2.890625 0.546875 -4.203125 Z M 2.796875 -4.125 C 2.796875 -3.363281 2.945312 -2.765625 3.25 -2.328125 C 3.5625 -1.890625 3.988281 -1.671875 4.53125 -1.671875 C 5.21875 -1.671875 5.707031 -1.929688 6 -2.453125 L 6 -6 C 5.695312 -6.519531 5.210938 -6.78125 4.546875 -6.78125 C 4.003906 -6.78125 3.578125 -6.554688 3.265625 -6.109375 C 2.953125 -5.671875 2.796875 -5.007812 2.796875 -4.125 Z M 2.796875 -4.125 "/></g></g></g><g fill="#0e2776" fill-opacity="1"><g transform="translate(223.887572, 137.525601)"><g><path d="M 4.765625 0.15625 C 3.523438 0.15625 2.515625 -0.222656 1.734375 -0.984375 C 0.953125 -1.742188 0.5625 -2.757812 0.5625 -4.03125 L 0.5625 -4.25 C 0.5625 -5.09375 0.722656 -5.847656 1.046875 -6.515625 C 1.378906 -7.191406 1.847656 -7.707031 2.453125 -8.0625 C 3.054688 -8.425781 3.742188 -8.609375 4.515625 -8.609375 C 5.671875 -8.609375 6.578125 -8.242188 7.234375 -7.515625 C 7.898438 -6.785156 8.234375 -5.753906 8.234375 -4.421875 L 8.234375 -3.5 L 2.859375 -3.5 C 2.929688 -2.945312 3.148438 -2.503906 3.515625 -2.171875 C 3.878906 -1.835938 4.34375 -1.671875 4.90625 -1.671875 C 5.78125 -1.671875 6.460938 -1.984375 6.953125 -2.609375 L 8.0625 -1.375 C 7.71875 -0.894531 7.253906 -0.519531 6.671875 -0.25 C 6.097656 0.0195312 5.460938 0.15625 4.765625 0.15625 Z M 4.5 -6.78125 C 4.050781 -6.78125 3.6875 -6.628906 3.40625 -6.328125 C 3.132812 -6.023438 2.957031 -5.59375 2.875 -5.03125 L 6.015625 -5.03125 L 6.015625 -5.21875 C 6.003906 -5.71875 5.867188 -6.101562 5.609375 -6.375 C 5.347656 -6.644531 4.976562 -6.78125 4.5 -6.78125 Z M 4.5 -6.78125 "/></g></g></g><g fill="#0e2776" fill-opacity="1"><g transform="translate(164.5739, 169.075901)"><g><path d="M 9.953125 -3.796875 C 9.859375 -2.566406 9.40625 -1.597656 8.59375 -0.890625 C 7.78125 -0.191406 6.707031 0.15625 5.375 0.15625 C 3.914062 0.15625 2.765625 -0.332031 1.921875 -1.3125 C 1.085938 -2.300781 0.671875 -3.648438 0.671875 -5.359375 L 0.671875 -6.0625 C 0.671875 -7.15625 0.863281 -8.117188 1.25 -8.953125 C 1.632812 -9.785156 2.1875 -10.421875 2.90625 -10.859375 C 3.625 -11.304688 4.457031 -11.53125 5.40625 -11.53125 C 6.71875 -11.53125 7.773438 -11.175781 8.578125 -10.46875 C 9.378906 -9.769531 9.84375 -8.785156 9.96875 -7.515625 L 7.625 -7.515625 C 7.5625 -8.253906 7.351562 -8.785156 7 -9.109375 C 6.65625 -9.441406 6.125 -9.609375 5.40625 -9.609375 C 4.625 -9.609375 4.035156 -9.328125 3.640625 -8.765625 C 3.253906 -8.210938 3.054688 -7.347656 3.046875 -6.171875 L 3.046875 -5.3125 C 3.046875 -4.082031 3.234375 -3.179688 3.609375 -2.609375 C 3.984375 -2.046875 4.570312 -1.765625 5.375 -1.765625 C 6.09375 -1.765625 6.628906 -1.925781 6.984375 -2.25 C 7.347656 -2.582031 7.554688 -3.097656 7.609375 -3.796875 Z M 9.953125 -3.796875 "/></g></g></g><g fill="#0e2776" fill-opacity="1"><g transform="translate(175.040093, 169.075901)"><g><path d="M 0.515625 -4.3125 C 0.515625 -5.144531 0.675781 -5.890625 1 -6.546875 C 1.320312 -7.203125 1.785156 -7.707031 2.390625 -8.0625 C 3.003906 -8.425781 3.710938 -8.609375 4.515625 -8.609375 C 5.648438 -8.609375 6.578125 -8.257812 7.296875 -7.5625 C 8.023438 -6.863281 8.429688 -5.914062 8.515625 -4.71875 L 8.53125 -4.140625 C 8.53125 -2.847656 8.164062 -1.804688 7.4375 -1.015625 C 6.71875 -0.234375 5.75 0.15625 4.53125 0.15625 C 3.3125 0.15625 2.335938 -0.234375 1.609375 -1.015625 C 0.878906 -1.796875 0.515625 -2.859375 0.515625 -4.203125 Z M 2.78125 -4.140625 C 2.78125 -3.335938 2.929688 -2.722656 3.234375 -2.296875 C 3.535156 -1.878906 3.96875 -1.671875 4.53125 -1.671875 C 5.070312 -1.671875 5.492188 -1.878906 5.796875 -2.296875 C 6.109375 -2.710938 6.265625 -3.382812 6.265625 -4.3125 C 6.265625 -5.09375 6.109375 -5.695312 5.796875 -6.125 C 5.492188 -6.5625 5.066406 -6.78125 4.515625 -6.78125 C 3.960938 -6.78125 3.535156 -6.566406 3.234375 -6.140625 C 2.929688 -5.710938 2.78125 -5.046875 2.78125 -4.140625 Z M 2.78125 -4.140625 "/></g></g></g><g fill="#0e2776" fill-opacity="1"><g transform="translate(184.084759, 169.075901)"><g><path d="M 2.984375 -8.453125 L 3.0625 -7.515625 C 3.65625 -8.242188 4.460938 -8.609375 5.484375 -8.609375 C 6.578125 -8.609375 7.328125 -8.179688 7.734375 -7.328125 C 8.328125 -8.179688 9.171875 -8.609375 10.265625 -8.609375 C 11.179688 -8.609375 11.863281 -8.34375 12.3125 -7.8125 C 12.757812 -7.28125 12.984375 -6.476562 12.984375 -5.40625 L 12.984375 0 L 10.71875 0 L 10.71875 -5.390625 C 10.71875 -5.867188 10.625 -6.21875 10.4375 -6.4375 C 10.25 -6.664062 9.921875 -6.78125 9.453125 -6.78125 C 8.773438 -6.78125 8.304688 -6.457031 8.046875 -5.8125 L 8.046875 0 L 5.796875 0 L 5.796875 -5.390625 C 5.796875 -5.878906 5.695312 -6.234375 5.5 -6.453125 C 5.3125 -6.671875 4.984375 -6.78125 4.515625 -6.78125 C 3.878906 -6.78125 3.414062 -6.515625 3.125 -5.984375 L 3.125 0 L 0.875 0 L 0.875 -8.453125 Z M 2.984375 -8.453125 "/></g></g></g><g fill="#0e2776" fill-opacity="1"><g transform="translate(197.932945, 169.075901)"><g><path d="M 2.984375 -8.453125 L 3.0625 -7.515625 C 3.65625 -8.242188 4.460938 -8.609375 5.484375 -8.609375 C 6.578125 -8.609375 7.328125 -8.179688 7.734375 -7.328125 C 8.328125 -8.179688 9.171875 -8.609375 10.265625 -8.609375 C 11.179688 -8.609375 11.863281 -8.34375 12.3125 -7.8125 C 12.757812 -7.28125 12.984375 -6.476562 12.984375 -5.40625 L 12.984375 0 L 10.71875 0 L 10.71875 -5.390625 C 10.71875 -5.867188 10.625 -6.21875 10.4375 -6.4375 C 10.25 -6.664062 9.921875 -6.78125 9.453125 -6.78125 C 8.773438 -6.78125 8.304688 -6.457031 8.046875 -5.8125 L 8.046875 0 L 5.796875 0 L 5.796875 -5.390625 C 5.796875 -5.878906 5.695312 -6.234375 5.5 -6.453125 C 5.3125 -6.671875 4.984375 -6.78125 4.515625 -6.78125 C 3.878906 -6.78125 3.414062 -6.515625 3.125 -5.984375 L 3.125 0 L 0.875 0 L 0.875 -8.453125 Z M 2.984375 -8.453125 "/></g></g></g><g fill="#0e2776" fill-opacity="1"><g transform="translate(211.781132, 169.075901)"><g><path d="M 5.9375 -0.859375 C 5.375 -0.179688 4.601562 0.15625 3.625 0.15625 C 2.71875 0.15625 2.023438 -0.101562 1.546875 -0.625 C 1.066406 -1.144531 0.820312 -1.910156 0.8125 -2.921875 L 0.8125 -8.453125 L 3.078125 -8.453125 L 3.078125 -3 C 3.078125 -2.113281 3.476562 -1.671875 4.28125 -1.671875 C 5.039062 -1.671875 5.566406 -1.9375 5.859375 -2.46875 L 5.859375 -8.453125 L 8.125 -8.453125 L 8.125 0 L 6 0 Z M 5.9375 -0.859375 "/></g></g></g><g fill="#0e2776" fill-opacity="1"><g transform="translate(220.73207, 169.075901)"><g><path d="M 2.953125 -8.453125 L 3.015625 -7.484375 C 3.617188 -8.234375 4.429688 -8.609375 5.453125 -8.609375 C 6.347656 -8.609375 7.015625 -8.34375 7.453125 -7.8125 C 7.890625 -7.289062 8.113281 -6.507812 8.125 -5.46875 L 8.125 0 L 5.859375 0 L 5.859375 -5.40625 C 5.859375 -5.882812 5.753906 -6.234375 5.546875 -6.453125 C 5.335938 -6.671875 4.992188 -6.78125 4.515625 -6.78125 C 3.878906 -6.78125 3.398438 -6.507812 3.078125 -5.96875 L 3.078125 0 L 0.828125 0 L 0.828125 -8.453125 Z M 2.953125 -8.453125 "/></g></g></g><g fill="#0e2776" fill-opacity="1"><g transform="translate(229.690825, 169.075901)"><g><path d="M 3.25 0 L 0.984375 0 L 0.984375 -8.453125 L 3.25 -8.453125 Z M 0.859375 -10.640625 C 0.859375 -10.984375 0.96875 -11.265625 1.1875 -11.484375 C 1.414062 -11.703125 1.726562 -11.8125 2.125 -11.8125 C 2.507812 -11.8125 2.816406 -11.703125 3.046875 -11.484375 C 3.273438 -11.265625 3.390625 -10.984375 3.390625 -10.640625 C 3.390625 -10.296875 3.269531 -10.015625 3.03125 -9.796875 C 2.800781 -9.578125 2.492188 -9.46875 2.109375 -9.46875 C 1.734375 -9.46875 1.429688 -9.578125 1.203125 -9.796875 C 0.972656 -10.015625 0.859375 -10.296875 0.859375 -10.640625 Z M 0.859375 -10.640625 "/></g></g></g><g fill="#0e2776" fill-opacity="1"><g transform="translate(233.931983, 169.075901)"><g><path d="M 4.390625 -1.671875 C 4.804688 -1.671875 5.144531 -1.785156 5.40625 -2.015625 C 5.664062 -2.242188 5.800781 -2.546875 5.8125 -2.921875 L 7.921875 -2.921875 C 7.921875 -2.347656 7.765625 -1.820312 7.453125 -1.34375 C 7.148438 -0.875 6.726562 -0.503906 6.1875 -0.234375 C 5.65625 0.0234375 5.066406 0.15625 4.421875 0.15625 C 3.210938 0.15625 2.257812 -0.226562 1.5625 -1 C 0.863281 -1.769531 0.515625 -2.832031 0.515625 -4.1875 L 0.515625 -4.328125 C 0.515625 -5.628906 0.859375 -6.664062 1.546875 -7.4375 C 2.242188 -8.21875 3.195312 -8.609375 4.40625 -8.609375 C 5.46875 -8.609375 6.316406 -8.304688 6.953125 -7.703125 C 7.585938 -7.109375 7.910156 -6.3125 7.921875 -5.3125 L 5.8125 -5.3125 C 5.800781 -5.75 5.664062 -6.101562 5.40625 -6.375 C 5.144531 -6.644531 4.800781 -6.78125 4.375 -6.78125 C 3.84375 -6.78125 3.441406 -6.585938 3.171875 -6.203125 C 2.910156 -5.828125 2.78125 -5.207031 2.78125 -4.34375 L 2.78125 -4.109375 C 2.78125 -3.242188 2.910156 -2.617188 3.171875 -2.234375 C 3.441406 -1.859375 3.847656 -1.671875 4.390625 -1.671875 Z M 4.390625 -1.671875 "/></g></g></g><g fill="#0e2776" fill-opacity="1"><g transform="translate(242.273695, 169.075901)"><g><path d="M 5.765625 0 C 5.660156 -0.207031 5.585938 -0.460938 5.546875 -0.765625 C 4.992188 -0.148438 4.28125 0.15625 3.40625 0.15625 C 2.582031 0.15625 1.894531 -0.0820312 1.34375 -0.5625 C 0.800781 -1.039062 0.53125 -1.644531 0.53125 -2.375 C 0.53125 -3.269531 0.863281 -3.957031 1.53125 -4.4375 C 2.195312 -4.914062 3.15625 -5.160156 4.40625 -5.171875 L 5.453125 -5.171875 L 5.453125 -5.65625 C 5.453125 -6.039062 5.347656 -6.347656 5.140625 -6.578125 C 4.941406 -6.816406 4.628906 -6.9375 4.203125 -6.9375 C 3.816406 -6.9375 3.515625 -6.84375 3.296875 -6.65625 C 3.085938 -6.476562 2.984375 -6.234375 2.984375 -5.921875 L 0.71875 -5.921875 C 0.71875 -6.410156 0.867188 -6.863281 1.171875 -7.28125 C 1.472656 -7.695312 1.898438 -8.019531 2.453125 -8.25 C 3.003906 -8.488281 3.625 -8.609375 4.3125 -8.609375 C 5.351562 -8.609375 6.179688 -8.347656 6.796875 -7.828125 C 7.410156 -7.304688 7.71875 -6.570312 7.71875 -5.625 L 7.71875 -1.953125 C 7.71875 -1.148438 7.828125 -0.546875 8.046875 -0.140625 L 8.046875 0 Z M 3.90625 -1.578125 C 4.238281 -1.578125 4.546875 -1.648438 4.828125 -1.796875 C 5.109375 -1.941406 5.316406 -2.140625 5.453125 -2.390625 L 5.453125 -3.84375 L 4.609375 -3.84375 C 3.472656 -3.84375 2.867188 -3.453125 2.796875 -2.671875 L 2.796875 -2.546875 C 2.796875 -2.265625 2.894531 -2.03125 3.09375 -1.84375 C 3.289062 -1.664062 3.5625 -1.578125 3.90625 -1.578125 Z M 3.90625 -1.578125 "/></g></g></g><g fill="#0e2776" fill-opacity="1"><g transform="translate(250.849726, 169.075901)"><g><path d="M 3.578125 -10.53125 L 3.578125 -8.453125 L 5.015625 -8.453125 L 5.015625 -6.796875 L 3.578125 -6.796875 L 3.578125 -2.578125 C 3.578125 -2.265625 3.632812 -2.039062 3.75 -1.90625 C 3.875 -1.769531 4.101562 -1.703125 4.4375 -1.703125 C 4.6875 -1.703125 4.910156 -1.722656 5.109375 -1.765625 L 5.109375 -0.046875 C 4.660156 0.0859375 4.203125 0.15625 3.734375 0.15625 C 2.148438 0.15625 1.34375 -0.644531 1.3125 -2.25 L 1.3125 -6.796875 L 0.078125 -6.796875 L 0.078125 -8.453125 L 1.3125 -8.453125 L 1.3125 -10.53125 Z M 3.578125 -10.53125 "/></g></g></g><g fill="#0e2776" fill-opacity="1"><g transform="translate(256.254656, 169.075901)"><g><path d="M 3.25 0 L 0.984375 0 L 0.984375 -8.453125 L 3.25 -8.453125 Z M 0.859375 -10.640625 C 0.859375 -10.984375 0.96875 -11.265625 1.1875 -11.484375 C 1.414062 -11.703125 1.726562 -11.8125 2.125 -11.8125 C 2.507812 -11.8125 2.816406 -11.703125 3.046875 -11.484375 C 3.273438 -11.265625 3.390625 -10.984375 3.390625 -10.640625 C 3.390625 -10.296875 3.269531 -10.015625 3.03125 -9.796875 C 2.800781 -9.578125 2.492188 -9.46875 2.109375 -9.46875 C 1.734375 -9.46875 1.429688 -9.578125 1.203125 -9.796875 C 0.972656 -10.015625 0.859375 -10.296875 0.859375 -10.640625 Z M 0.859375 -10.640625 "/></g></g></g><g fill="#0e2776" fill-opacity="1"><g transform="translate(260.495813, 169.075901)"><g><path d="M 0.515625 -4.3125 C 0.515625 -5.144531 0.675781 -5.890625 1 -6.546875 C 1.320312 -7.203125 1.785156 -7.707031 2.390625 -8.0625 C 3.003906 -8.425781 3.710938 -8.609375 4.515625 -8.609375 C 5.648438 -8.609375 6.578125 -8.257812 7.296875 -7.5625 C 8.023438 -6.863281 8.429688 -5.914062 8.515625 -4.71875 L 8.53125 -4.140625 C 8.53125 -2.847656 8.164062 -1.804688 7.4375 -1.015625 C 6.71875 -0.234375 5.75 0.15625 4.53125 0.15625 C 3.3125 0.15625 2.335938 -0.234375 1.609375 -1.015625 C 0.878906 -1.796875 0.515625 -2.859375 0.515625 -4.203125 Z M 2.78125 -4.140625 C 2.78125 -3.335938 2.929688 -2.722656 3.234375 -2.296875 C 3.535156 -1.878906 3.96875 -1.671875 4.53125 -1.671875 C 5.070312 -1.671875 5.492188 -1.878906 5.796875 -2.296875 C 6.109375 -2.710938 6.265625 -3.382812 6.265625 -4.3125 C 6.265625 -5.09375 6.109375 -5.695312 5.796875 -6.125 C 5.492188 -6.5625 5.066406 -6.78125 4.515625 -6.78125 C 3.960938 -6.78125 3.535156 -6.566406 3.234375 -6.140625 C 2.929688 -5.710938 2.78125 -5.046875 2.78125 -4.140625 Z M 2.78125 -4.140625 "/></g></g></g><g fill="#0e2776" fill-opacity="1"><g transform="translate(269.540479, 169.075901)"><g><path d="M 2.953125 -8.453125 L 3.015625 -7.484375 C 3.617188 -8.234375 4.429688 -8.609375 5.453125 -8.609375 C 6.347656 -8.609375 7.015625 -8.34375 7.453125 -7.8125 C 7.890625 -7.289062 8.113281 -6.507812 8.125 -5.46875 L 8.125 0 L 5.859375 0 L 5.859375 -5.40625 C 5.859375 -5.882812 5.753906 -6.234375 5.546875 -6.453125 C 5.335938 -6.671875 4.992188 -6.78125 4.515625 -6.78125 C 3.878906 -6.78125 3.398438 -6.507812 3.078125 -5.96875 L 3.078125 0 L 0.828125 0 L 0.828125 -8.453125 Z M 2.953125 -8.453125 "/></g></g></g><g fill="#0e2776" fill-opacity="1"><g transform="translate(164.5739, 200.37586)"><g><path d="M 7.4375 -2.34375 L 3.328125 -2.34375 L 2.546875 0 L 0.0625 0 L 4.296875 -11.375 L 6.46875 -11.375 L 10.71875 0 L 8.234375 0 Z M 3.96875 -4.25 L 6.8125 -4.25 L 5.375 -8.5 Z M 3.96875 -4.25 "/></g></g></g><g fill="#0e2776" fill-opacity="1"><g transform="translate(175.336896, 200.37586)"><g><path d="M 4.390625 -1.671875 C 4.804688 -1.671875 5.144531 -1.785156 5.40625 -2.015625 C 5.664062 -2.242188 5.800781 -2.546875 5.8125 -2.921875 L 7.921875 -2.921875 C 7.921875 -2.347656 7.765625 -1.820312 7.453125 -1.34375 C 7.148438 -0.875 6.726562 -0.503906 6.1875 -0.234375 C 5.65625 0.0234375 5.066406 0.15625 4.421875 0.15625 C 3.210938 0.15625 2.257812 -0.226562 1.5625 -1 C 0.863281 -1.769531 0.515625 -2.832031 0.515625 -4.1875 L 0.515625 -4.328125 C 0.515625 -5.628906 0.859375 -6.664062 1.546875 -7.4375 C 2.242188 -8.21875 3.195312 -8.609375 4.40625 -8.609375 C 5.46875 -8.609375 6.316406 -8.304688 6.953125 -7.703125 C 7.585938 -7.109375 7.910156 -6.3125 7.921875 -5.3125 L 5.8125 -5.3125 C 5.800781 -5.75 5.664062 -6.101562 5.40625 -6.375 C 5.144531 -6.644531 4.800781 -6.78125 4.375 -6.78125 C 3.84375 -6.78125 3.441406 -6.585938 3.171875 -6.203125 C 2.910156 -5.828125 2.78125 -5.207031 2.78125 -4.34375 L 2.78125 -4.109375 C 2.78125 -3.242188 2.910156 -2.617188 3.171875 -2.234375 C 3.441406 -1.859375 3.847656 -1.671875 4.390625 -1.671875 Z M 4.390625 -1.671875 "/></g></g></g><g fill="#0e2776" fill-opacity="1"><g transform="translate(183.678608, 200.37586)"><g><path d="M 3.578125 -10.53125 L 3.578125 -8.453125 L 5.015625 -8.453125 L 5.015625 -6.796875 L 3.578125 -6.796875 L 3.578125 -2.578125 C 3.578125 -2.265625 3.632812 -2.039062 3.75 -1.90625 C 3.875 -1.769531 4.101562 -1.703125 4.4375 -1.703125 C 4.6875 -1.703125 4.910156 -1.722656 5.109375 -1.765625 L 5.109375 -0.046875 C 4.660156 0.0859375 4.203125 0.15625 3.734375 0.15625 C 2.148438 0.15625 1.34375 -0.644531 1.3125 -2.25 L 1.3125 -6.796875 L 0.078125 -6.796875 L 0.078125 -8.453125 L 1.3125 -8.453125 L 1.3125 -10.53125 Z M 3.578125 -10.53125 "/></g></g></g><g fill="#0e2776" fill-opacity="1"><g transform="translate(189.083538, 200.37586)"><g><path d="M 3.25 0 L 0.984375 0 L 0.984375 -8.453125 L 3.25 -8.453125 Z M 0.859375 -10.640625 C 0.859375 -10.984375 0.96875 -11.265625 1.1875 -11.484375 C 1.414062 -11.703125 1.726562 -11.8125 2.125 -11.8125 C 2.507812 -11.8125 2.816406 -11.703125 3.046875 -11.484375 C 3.273438 -11.265625 3.390625 -10.984375 3.390625 -10.640625 C 3.390625 -10.296875 3.269531 -10.015625 3.03125 -9.796875 C 2.800781 -9.578125 2.492188 -9.46875 2.109375 -9.46875 C 1.734375 -9.46875 1.429688 -9.578125 1.203125 -9.796875 C 0.972656 -10.015625 0.859375 -10.296875 0.859375 -10.640625 Z M 0.859375 -10.640625 "/></g></g></g><g fill="#0e2776" fill-opacity="1"><g transform="translate(193.324696, 200.37586)"><g><path d="M 4.03125 -2.765625 L 5.609375 -8.453125 L 7.96875 -8.453125 L 5.109375 0 L 2.953125 0 L 0.109375 -8.453125 L 2.46875 -8.453125 Z M 4.03125 -2.765625 "/></g></g></g><g fill="#0e2776" fill-opacity="1"><g transform="translate(201.408664, 200.37586)"><g><path d="M 3.25 0 L 0.984375 0 L 0.984375 -8.453125 L 3.25 -8.453125 Z M 0.859375 -10.640625 C 0.859375 -10.984375 0.96875 -11.265625 1.1875 -11.484375 C 1.414062 -11.703125 1.726562 -11.8125 2.125 -11.8125 C 2.507812 -11.8125 2.816406 -11.703125 3.046875 -11.484375 C 3.273438 -11.265625 3.390625 -10.984375 3.390625 -10.640625 C 3.390625 -10.296875 3.269531 -10.015625 3.03125 -9.796875 C 2.800781 -9.578125 2.492188 -9.46875 2.109375 -9.46875 C 1.734375 -9.46875 1.429688 -9.578125 1.203125 -9.796875 C 0.972656 -10.015625 0.859375 -10.296875 0.859375 -10.640625 Z M 0.859375 -10.640625 "/></g></g></g><g fill="#0e2776" fill-opacity="1"><g transform="translate(205.649822, 200.37586)"><g><path d="M 3.578125 -10.53125 L 3.578125 -8.453125 L 5.015625 -8.453125 L 5.015625 -6.796875 L 3.578125 -6.796875 L 3.578125 -2.578125 C 3.578125 -2.265625 3.632812 -2.039062 3.75 -1.90625 C 3.875 -1.769531 4.101562 -1.703125 4.4375 -1.703125 C 4.6875 -1.703125 4.910156 -1.722656 5.109375 -1.765625 L 5.109375 -0.046875 C 4.660156 0.0859375 4.203125 0.15625 3.734375 0.15625 C 2.148438 0.15625 1.34375 -0.644531 1.3125 -2.25 L 1.3125 -6.796875 L 0.078125 -6.796875 L 0.078125 -8.453125 L 1.3125 -8.453125 L 1.3125 -10.53125 Z M 3.578125 -10.53125 "/></g></g></g><g fill="#0e2776" fill-opacity="1"><g transform="translate(211.054752, 200.37586)"><g><path d="M 4.765625 0.15625 C 3.523438 0.15625 2.515625 -0.222656 1.734375 -0.984375 C 0.953125 -1.742188 0.5625 -2.757812 0.5625 -4.03125 L 0.5625 -4.25 C 0.5625 -5.09375 0.722656 -5.847656 1.046875 -6.515625 C 1.378906 -7.191406 1.847656 -7.707031 2.453125 -8.0625 C 3.054688 -8.425781 3.742188 -8.609375 4.515625 -8.609375 C 5.671875 -8.609375 6.578125 -8.242188 7.234375 -7.515625 C 7.898438 -6.785156 8.234375 -5.753906 8.234375 -4.421875 L 8.234375 -3.5 L 2.859375 -3.5 C 2.929688 -2.945312 3.148438 -2.503906 3.515625 -2.171875 C 3.878906 -1.835938 4.34375 -1.671875 4.90625 -1.671875 C 5.78125 -1.671875 6.460938 -1.984375 6.953125 -2.609375 L 8.0625 -1.375 C 7.71875 -0.894531 7.253906 -0.519531 6.671875 -0.25 C 6.097656 0.0195312 5.460938 0.15625 4.765625 0.15625 Z M 4.5 -6.78125 C 4.050781 -6.78125 3.6875 -6.628906 3.40625 -6.328125 C 3.132812 -6.023438 2.957031 -5.59375 2.875 -5.03125 L 6.015625 -5.03125 L 6.015625 -5.21875 C 6.003906 -5.71875 5.867188 -6.101562 5.609375 -6.375 C 5.347656 -6.644531 4.976562 -6.78125 4.5 -6.78125 Z M 4.703125 -12 L 7.171875 -12 L 5 -9.578125 L 3.171875 -9.578125 Z M 4.703125 -12 "/></g></g></g><g fill="#0e2776" fill-opacity="1"><g transform="translate(219.701083, 200.37586)"><g><path d="M 5.453125 -2.34375 C 5.453125 -2.613281 5.3125 -2.828125 5.03125 -2.984375 C 4.757812 -3.148438 4.320312 -3.296875 3.71875 -3.421875 C 1.707031 -3.835938 0.703125 -4.691406 0.703125 -5.984375 C 0.703125 -6.734375 1.015625 -7.359375 1.640625 -7.859375 C 2.265625 -8.359375 3.078125 -8.609375 4.078125 -8.609375 C 5.148438 -8.609375 6.007812 -8.351562 6.65625 -7.84375 C 7.300781 -7.34375 7.625 -6.691406 7.625 -5.890625 L 5.359375 -5.890625 C 5.359375 -6.210938 5.253906 -6.476562 5.046875 -6.6875 C 4.835938 -6.894531 4.515625 -7 4.078125 -7 C 3.691406 -7 3.394531 -6.910156 3.1875 -6.734375 C 2.976562 -6.566406 2.875 -6.351562 2.875 -6.09375 C 2.875 -5.84375 2.992188 -5.640625 3.234375 -5.484375 C 3.472656 -5.328125 3.875 -5.191406 4.4375 -5.078125 C 5 -4.972656 5.472656 -4.847656 5.859375 -4.703125 C 7.046875 -4.265625 7.640625 -3.507812 7.640625 -2.4375 C 7.640625 -1.664062 7.304688 -1.039062 6.640625 -0.5625 C 5.984375 -0.0820312 5.132812 0.15625 4.09375 0.15625 C 3.382812 0.15625 2.753906 0.03125 2.203125 -0.21875 C 1.648438 -0.476562 1.21875 -0.828125 0.90625 -1.265625 C 0.59375 -1.703125 0.4375 -2.175781 0.4375 -2.6875 L 2.578125 -2.6875 C 2.597656 -2.289062 2.742188 -1.984375 3.015625 -1.765625 C 3.296875 -1.554688 3.671875 -1.453125 4.140625 -1.453125 C 4.566406 -1.453125 4.890625 -1.53125 5.109375 -1.6875 C 5.335938 -1.851562 5.453125 -2.070312 5.453125 -2.34375 Z M 5.453125 -2.34375 "/></g></g></g></svg>