<svg xmlns="http://www.w3.org/2000/svg" xmlns:xlink="http://www.w3.org/1999/xlink" width="150" zoomAndPan="magnify" viewBox="0 0 112.5 112.499997" height="150" preserveAspectRatio="xMidYMid meet" version="1.0"><defs><clipPath id="6ab2a6d942"><path d="M 22.363281 19.507812 L 89.5625 19.507812 L 89.5625 92.683594 L 22.363281 92.683594 Z M 22.363281 19.507812 " clip-rule="nonzero"/></clipPath></defs><g clip-path="url(#6ab2a6d942)"><path fill="#0e2776" d="M 86.773438 61.507812 L 86.441406 62.320312 C 85.140625 65.503906 83.804688 68.804688 82.5625 72.074219 C 80.640625 77.15625 80.042969 81.390625 80.683594 85.410156 C 80.902344 86.617188 81.199219 87.808594 81.570312 88.976562 C 81.683594 89.367188 81.796875 89.753906 81.90625 90.144531 C 81.984375 90.308594 82.027344 90.484375 82.03125 90.667969 C 82.035156 90.847656 82.003906 91.023438 81.933594 91.191406 C 81.863281 91.363281 81.765625 91.507812 81.632812 91.636719 C 81.5 91.761719 81.347656 91.855469 81.175781 91.917969 C 81.046875 91.96875 80.917969 92 80.78125 92.011719 C 80.558594 92.140625 80.324219 92.203125 80.070312 92.199219 L 51.015625 92.199219 C 50.566406 92.3125 50.117188 92.324219 49.664062 92.230469 C 49.210938 92.136719 48.800781 91.945312 48.4375 91.664062 C 47.796875 90.871094 47.347656 89.984375 47.089844 89 C 47.015625 88.808594 46.957031 88.648438 46.917969 88.542969 C 43.777344 89.707031 40.546875 90.054688 37.230469 89.574219 C 35.441406 89.441406 33.75 88.953125 32.167969 88.105469 C 31.464844 87.617188 30.890625 87.011719 30.441406 86.289062 C 29.988281 85.566406 29.699219 84.78125 29.574219 83.9375 C 29.238281 82.15625 29.496094 80.363281 29.34375 78.570312 C 29.140625 76.640625 28.453125 74.902344 27.273438 73.359375 C 27.175781 73.226562 27.101562 73.078125 27.054688 72.917969 L 26.890625 72.699219 C 26.757812 72.476562 26.691406 72.234375 26.691406 71.976562 L 26.691406 70.871094 C 26.691406 70.800781 26.699219 70.726562 26.710938 70.65625 C 26.453125 70.214844 26.328125 69.738281 26.335938 69.222656 C 26.382812 68.613281 26.253906 68.042969 25.957031 67.507812 C 25.660156 66.972656 25.238281 66.5625 24.699219 66.28125 C 24.460938 66.160156 24.242188 66.015625 24.035156 65.847656 C 23.828125 65.679688 23.640625 65.496094 23.46875 65.292969 C 23.300781 65.089844 23.152344 64.871094 23.023438 64.636719 C 22.898438 64.402344 22.796875 64.160156 22.71875 63.90625 C 22.636719 63.652344 22.585938 63.394531 22.558594 63.128906 C 22.53125 62.867188 22.53125 62.601562 22.554688 62.339844 C 22.582031 62.074219 22.632812 61.816406 22.710938 61.5625 C 22.785156 61.308594 22.886719 61.0625 23.011719 60.828125 C 23.535156 59.691406 24.199219 58.640625 25.003906 57.675781 C 26.628906 55.75 27.648438 53.542969 28.058594 51.054688 C 28.300781 49.527344 28.398438 47.945312 28.496094 46.421875 C 28.5625 45.367188 28.632812 44.289062 28.742188 43.226562 C 29.757812 33.707031 34.582031 27.011719 43.078125 23.324219 C 48.257812 21.179688 53.644531 19.984375 59.246094 19.734375 C 62.621094 19.699219 65.90625 20.226562 69.101562 21.3125 C 72.296875 22.402344 75.222656 23.988281 77.878906 26.070312 C 80.46875 28.113281 82.640625 30.527344 84.398438 33.320312 C 86.152344 36.113281 87.386719 39.117188 88.105469 42.339844 C 88.902344 45.523438 89.1875 48.753906 88.960938 52.027344 C 88.734375 55.304688 88.003906 58.464844 86.773438 61.507812 Z M 85.714844 43.78125 C 83.429688 32.460938 74.777344 24.1875 63.671875 22.699219 C 59.863281 22.226562 56.078125 22.359375 52.3125 23.097656 C 48.546875 23.832031 44.992188 25.136719 41.644531 27.007812 C 40.445312 27.628906 39.328125 28.375 38.292969 29.242188 C 37.257812 30.109375 36.328125 31.078125 35.507812 32.152344 C 34.6875 33.226562 33.996094 34.375 33.429688 35.601562 C 32.867188 36.828125 32.441406 38.101562 32.15625 39.421875 C 31.574219 41.980469 31.257812 44.566406 31.203125 47.1875 C 31.191406 49.484375 30.804688 51.710938 30.039062 53.871094 C 29.277344 56.035156 28.175781 58.011719 26.746094 59.800781 C 26.300781 60.328125 25.914062 60.890625 25.578125 61.492188 C 24.917969 62.738281 25.109375 63.445312 26.308594 64.1875 C 26.714844 64.40625 27.082031 64.679688 27.410156 65 C 27.742188 65.320312 28.023438 65.679688 28.253906 66.074219 C 28.488281 66.472656 28.660156 66.894531 28.777344 67.339844 C 28.898438 67.785156 28.953125 68.234375 28.945312 68.695312 C 28.917969 68.917969 28.972656 69.117188 29.109375 69.296875 C 29.292969 69.433594 29.503906 69.484375 29.730469 69.449219 C 31.082031 69.421875 32.484375 69.421875 33.898438 69.449219 C 34.332031 69.429688 34.707031 69.570312 35.019531 69.867188 C 35.265625 70.144531 35.371094 70.46875 35.335938 70.839844 C 35.304688 71.640625 34.785156 72.082031 33.878906 72.082031 C 33.445312 72.082031 33.007812 72.085938 32.574219 72.089844 C 31.683594 72.09375 30.765625 72.09375 29.859375 72.082031 C 30.710938 73.351562 31.34375 74.726562 31.753906 76.203125 C 32.160156 77.679688 32.328125 79.179688 32.246094 80.710938 C 32.234375 82.128906 32.152344 83.769531 33 84.988281 C 33.859375 86.234375 35.769531 86.453125 37.148438 86.6875 C 43 87.675781 49.582031 85.796875 52.191406 80.054688 C 52.957031 78.375 55.425781 79.832031 54.667969 81.5 C 54.105469 82.730469 53.371094 83.84375 52.460938 84.847656 C 51.554688 85.847656 50.515625 86.691406 49.347656 87.371094 C 49.671875 88.058594 49.957031 88.730469 50.195312 89.335938 L 78.808594 89.335938 C 78.054688 86.78125 77.710938 84.171875 77.785156 81.511719 C 77.859375 78.847656 78.347656 76.265625 79.246094 73.757812 C 80.660156 69.625 82.285156 65.488281 83.859375 61.488281 L 84.46875 59.945312 C 85.472656 57.375 86.078125 54.710938 86.292969 51.957031 C 86.503906 49.203125 86.3125 46.476562 85.714844 43.78125 Z M 77.664062 45.5 C 77.507812 45.363281 77.410156 45.191406 77.375 44.984375 C 77.34375 44.777344 77.378906 44.585938 77.480469 44.402344 C 77.628906 44.078125 77.742188 43.742188 77.820312 43.398438 C 77.898438 43.050781 77.9375 42.699219 77.945312 42.34375 C 77.953125 41.988281 77.921875 41.636719 77.855469 41.285156 C 77.789062 40.9375 77.6875 40.597656 77.550781 40.269531 C 77.417969 39.941406 77.25 39.628906 77.050781 39.335938 C 76.851562 39.039062 76.621094 38.769531 76.367188 38.523438 C 76.113281 38.273438 75.835938 38.054688 75.535156 37.863281 C 75.234375 37.671875 74.917969 37.515625 74.585938 37.390625 C 74.367188 37.332031 74.1875 37.210938 74.054688 37.023438 C 73.921875 36.839844 73.863281 36.632812 73.878906 36.40625 C 73.863281 36.050781 73.816406 35.699219 73.734375 35.355469 C 73.65625 35.011719 73.542969 34.675781 73.398438 34.351562 C 73.257812 34.027344 73.085938 33.71875 72.882812 33.425781 C 72.683594 33.132812 72.457031 32.863281 72.207031 32.613281 C 71.953125 32.363281 71.679688 32.136719 71.386719 31.9375 C 71.09375 31.738281 70.785156 31.570312 70.460938 31.425781 C 70.136719 31.285156 69.800781 31.175781 69.453125 31.097656 C 69.109375 31.019531 68.757812 30.972656 68.402344 30.957031 C 68.0625 30.953125 67.769531 30.832031 67.523438 30.59375 C 66.148438 28.386719 64.660156 27.355469 62.84375 27.433594 C 62.347656 27.363281 61.859375 27.386719 61.371094 27.507812 C 61.207031 27.566406 61.027344 27.640625 61.027344 27.640625 C 60.875 27.707031 60.722656 27.796875 60.484375 27.929688 C 60.3125 28.027344 60.148438 28.132812 59.988281 28.246094 C 59.898438 28.300781 59.8125 28.359375 59.730469 28.425781 L 59.710938 28.433594 L 59.660156 28.484375 C 59.363281 28.734375 59.085938 29.003906 58.828125 29.296875 C 58.820312 29.304688 58.726562 29.417969 58.707031 29.441406 C 58.6875 29.46875 58.667969 29.492188 58.648438 29.515625 C 58.214844 30.203125 57.929688 30.949219 57.796875 31.75 L 57.796875 32.324219 C 57.730469 32.382812 57.65625 32.429688 57.578125 32.46875 C 56.339844 32.996094 55.078125 33.457031 53.792969 33.851562 C 53.449219 33.957031 53.121094 33.917969 52.808594 33.738281 C 52.066406 33.191406 51.339844 32.574219 50.652344 31.972656 L 50.199219 31.589844 C 50.0625 31.429688 49.894531 31.3125 49.699219 31.226562 C 49.503906 31.144531 49.300781 31.109375 49.089844 31.117188 C 48.878906 31.125 48.679688 31.175781 48.496094 31.273438 C 48.308594 31.375 48.148438 31.507812 48.023438 31.675781 C 46.914062 32.800781 45.765625 33.949219 44.667969 35.046875 L 44.542969 35.160156 C 44.386719 35.285156 44.261719 35.4375 44.171875 35.617188 C 44.078125 35.796875 44.027344 35.988281 44.019531 36.1875 C 44.011719 36.390625 44.046875 36.582031 44.125 36.769531 C 44.199219 36.957031 44.3125 37.117188 44.457031 37.253906 L 45.089844 38 C 45.652344 38.652344 46.234375 39.328125 46.742188 40.035156 C 46.933594 40.386719 46.972656 40.75 46.855469 41.132812 C 46.695312 41.628906 46.511719 42.113281 46.304688 42.585938 C 46.132812 43.007812 45.949219 43.449219 45.804688 43.886719 C 45.613281 44.449219 45.382812 44.632812 44.851562 44.652344 C 44.054688 44.671875 43.265625 44.746094 42.492188 44.824219 C 42.109375 44.851562 41.734375 44.890625 41.351562 44.917969 C 41.140625 44.910156 40.9375 44.945312 40.742188 45.023438 C 40.546875 45.101562 40.378906 45.222656 40.234375 45.375 C 40.089844 45.53125 39.988281 45.707031 39.921875 45.910156 C 39.855469 46.109375 39.835938 46.316406 39.863281 46.523438 C 39.871094 47.976562 39.871094 49.457031 39.863281 50.882812 L 39.863281 51.445312 C 39.835938 51.65625 39.859375 51.863281 39.925781 52.0625 C 39.992188 52.261719 40.097656 52.4375 40.242188 52.59375 C 40.390625 52.746094 40.5625 52.859375 40.761719 52.933594 C 40.957031 53.007812 41.160156 53.039062 41.371094 53.023438 C 42.15625 53.058594 42.949219 53.136719 43.710938 53.203125 L 44.640625 53.289062 C 44.914062 53.269531 45.160156 53.34375 45.378906 53.507812 C 45.597656 53.675781 45.734375 53.890625 45.785156 54.160156 C 46.011719 54.980469 46.339844 55.757812 46.773438 56.492188 C 46.875 56.621094 46.949219 56.765625 46.992188 56.925781 C 47.035156 57.089844 47.046875 57.25 47.023438 57.414062 C 47 57.578125 46.941406 57.734375 46.855469 57.875 C 46.769531 58.015625 46.660156 58.136719 46.523438 58.230469 C 46.035156 58.71875 45.574219 59.234375 45.148438 59.777344 C 44.90625 60.066406 44.679688 60.351562 44.429688 60.628906 C 44.28125 60.765625 44.171875 60.929688 44.09375 61.113281 C 44.015625 61.300781 43.980469 61.496094 43.988281 61.695312 C 43.992188 61.898438 44.042969 62.085938 44.128906 62.269531 C 44.21875 62.449219 44.339844 62.601562 44.496094 62.730469 C 45.671875 63.945312 46.886719 65.148438 48.136719 66.371094 C 48.261719 66.515625 48.410156 66.628906 48.585938 66.710938 C 48.757812 66.792969 48.941406 66.835938 49.132812 66.839844 C 49.324219 66.84375 49.507812 66.808594 49.683594 66.730469 C 49.859375 66.65625 50.015625 66.550781 50.144531 66.410156 L 53.183594 63.867188 C 53.527344 64.011719 53.851562 64.15625 54.1875 64.289062 C 55.171875 64.699219 56.8125 65.089844 57.730469 65.523438 C 57.753906 65.535156 57.777344 65.550781 57.796875 65.570312 L 57.796875 69.421875 C 57.816406 69.46875 57.835938 69.511719 57.863281 69.554688 C 58.488281 70.65625 60.035156 70.902344 60.96875 70.96875 C 61.441406 70.953125 61.824219 70.757812 62.117188 70.386719 C 62.902344 70.550781 63.695312 70.566406 64.488281 70.4375 C 65.28125 70.308594 66.027344 70.039062 66.722656 69.632812 C 67.496094 69.1875 68.308594 68.824219 69.15625 68.542969 C 72.960938 67.308594 74.835938 65.1875 75.035156 61.882812 C 75.042969 61.730469 75.160156 61.453125 75.636719 61.03125 C 77.128906 59.703125 78.742188 57.871094 78.035156 55.394531 C 77.855469 54.691406 77.8125 53.984375 77.910156 53.265625 C 78.007812 52.546875 78.238281 51.875 78.601562 51.246094 C 78.816406 50.777344 78.960938 50.285156 79.027344 49.769531 C 79.097656 49.257812 79.089844 48.742188 79.007812 48.230469 C 78.921875 47.71875 78.765625 47.230469 78.539062 46.765625 C 78.308594 46.300781 78.015625 45.878906 77.660156 45.503906 Z M 57.792969 55.9375 C 55.613281 54.445312 53.292969 51.855469 53.359375 48.882812 C 53.417969 46.019531 55.546875 43.464844 57.792969 41.976562 Z M 54.457031 61.375 C 53.042969 60.621094 52.785156 60.589844 51.589844 61.679688 C 51.027344 62.195312 50.445312 62.683594 49.929688 63.125 C 49.746094 63.277344 49.566406 63.429688 49.402344 63.570312 L 47.136719 61.59375 L 47.855469 60.761719 C 48.457031 60.054688 49.019531 59.386719 49.621094 58.738281 C 49.894531 58.449219 50.050781 58.109375 50.085938 57.714844 C 50.121094 57.320312 50.03125 56.957031 49.8125 56.625 C 49.195312 55.230469 48.601562 53.75 48.019531 52.09375 C 47.933594 51.722656 47.746094 51.417969 47.453125 51.175781 C 47.160156 50.933594 46.820312 50.804688 46.441406 50.796875 C 45.21875 50.730469 44.195312 50.652344 43.171875 50.519531 C 42.925781 50.480469 42.550781 50.210938 42.542969 50.097656 C 42.496094 49.445312 42.476562 48.789062 42.496094 48.128906 C 42.503906 47.921875 42.503906 47.710938 42.503906 47.5 L 43.679688 47.386719 C 44.644531 47.289062 45.5625 47.195312 46.46875 47.136719 C 46.847656 47.121094 47.183594 46.992188 47.472656 46.75 C 47.761719 46.503906 47.949219 46.199219 48.027344 45.828125 C 48.609375 44.164062 49.183594 42.710938 49.796875 41.394531 C 50.003906 41.058594 50.089844 40.691406 50.050781 40.300781 C 50.015625 39.90625 49.863281 39.5625 49.59375 39.273438 C 48.984375 38.585938 48.410156 37.878906 47.847656 37.1875 C 47.625 36.929688 47.417969 36.664062 47.207031 36.414062 L 49.316406 34.304688 C 49.566406 34.515625 49.816406 34.714844 50.0625 34.921875 C 50.722656 35.460938 51.390625 36.023438 52.042969 36.597656 C 52.1875 36.738281 52.351562 36.847656 52.539062 36.929688 C 52.722656 37.011719 52.917969 37.058594 53.121094 37.070312 C 53.320312 37.085938 53.519531 37.0625 53.714844 37.007812 C 53.90625 36.949219 54.085938 36.859375 54.25 36.742188 C 55.175781 36.253906 56.753906 35.8125 57.792969 35.410156 L 57.792969 38.949219 C 53.972656 40.753906 50.578125 44.863281 50.722656 49.277344 C 50.875 53.921875 54.441406 57.515625 57.792969 59.050781 L 57.792969 62.636719 C 56.65625 62.285156 55.542969 61.863281 54.457031 61.375 Z M 75.335938 51.714844 C 74.371094 52.765625 71.496094 53.089844 70.53125 52.257812 C 70.378906 52.128906 70.265625 51.972656 70.1875 51.789062 C 69.125 48.820312 66.554688 48.054688 64.433594 47.730469 C 63.972656 47.613281 63.539062 47.683594 63.132812 47.9375 C 62.851562 48.175781 62.699219 48.476562 62.683594 48.847656 C 62.5625 49.984375 63.441406 50.25 64.117188 50.355469 C 65.714844 50.597656 66.707031 51.042969 67.242188 51.789062 C 67.839844 52.851562 67.964844 53.96875 67.617188 55.132812 C 67.617188 55.144531 67.605469 55.152344 67.605469 55.164062 C 67.59375 55.191406 67.585938 55.21875 67.589844 55.25 C 67.542969 55.425781 67.53125 55.601562 67.558594 55.78125 C 67.582031 55.960938 67.640625 56.125 67.734375 56.28125 C 67.828125 56.4375 67.945312 56.570312 68.089844 56.675781 C 68.234375 56.785156 68.394531 56.859375 68.570312 56.90625 C 68.746094 56.964844 68.921875 56.988281 69.105469 56.972656 C 69.289062 56.957031 69.460938 56.90625 69.621094 56.8125 C 69.78125 56.722656 69.914062 56.601562 70.019531 56.453125 C 70.128906 56.304688 70.199219 56.140625 70.234375 55.960938 C 70.292969 55.769531 70.359375 55.585938 70.417969 55.402344 L 70.472656 55.230469 C 70.703125 55.253906 70.933594 55.28125 71.152344 55.300781 C 71.707031 55.367188 72.265625 55.394531 72.824219 55.386719 C 73.40625 55.351562 73.984375 55.277344 74.554688 55.164062 C 74.761719 55.128906 74.984375 55.097656 75.203125 55.0625 C 75.34375 55.347656 75.429688 55.648438 75.460938 55.960938 C 75.492188 56.277344 75.46875 56.589844 75.390625 56.894531 C 75.3125 57.203125 75.179688 57.488281 75 57.75 C 74.820312 58.007812 74.601562 58.230469 74.34375 58.414062 C 74.316406 58.347656 74.285156 58.28125 74.257812 58.203125 C 74.164062 57.957031 74.058594 57.707031 73.953125 57.46875 C 73.796875 57.027344 73.503906 56.714844 73.074219 56.53125 C 72.714844 56.421875 72.367188 56.460938 72.039062 56.644531 C 71.863281 56.722656 71.710938 56.832031 71.582031 56.976562 C 71.453125 57.125 71.363281 57.289062 71.308594 57.476562 C 71.253906 57.660156 71.242188 57.851562 71.273438 58.042969 C 71.304688 58.234375 71.375 58.40625 71.488281 58.566406 L 71.507812 58.605469 C 71.738281 59.078125 71.941406 59.5625 72.117188 60.058594 C 72.824219 62.160156 72.097656 64.332031 70.457031 65.027344 C 70.332031 64.867188 70.21875 64.695312 70.101562 64.519531 C 69.882812 64.097656 69.570312 63.769531 69.15625 63.535156 C 69.015625 63.476562 68.867188 63.445312 68.714844 63.441406 C 68.582031 63.441406 68.453125 63.46875 68.332031 63.527344 C 67.882812 63.828125 67.59375 64.242188 67.472656 64.769531 C 67.449219 64.835938 67.421875 64.898438 67.386719 64.960938 C 67.367188 64.988281 67.351562 65.019531 67.339844 65.054688 C 67.078125 65.664062 66.707031 66.199219 66.226562 66.65625 C 65.746094 67.117188 65.199219 67.464844 64.578125 67.703125 C 63.949219 67.882812 63.308594 67.929688 62.65625 67.847656 C 62.007812 67.765625 61.398438 67.5625 60.832031 67.234375 C 60.570312 67.074219 60.40625 66.847656 60.34375 66.546875 C 60.308594 65.589844 60.308594 64.636719 60.316406 63.632812 C 60.316406 63.324219 60.324219 63.011719 60.324219 62.695312 C 60.488281 62.722656 60.640625 62.75 60.792969 62.789062 C 61.203125 62.867188 61.589844 62.945312 61.980469 62.980469 C 64.234375 63.210938 65.820312 62.542969 66.851562 60.925781 C 66.976562 60.78125 67.066406 60.613281 67.117188 60.425781 C 67.167969 60.242188 67.175781 60.050781 67.144531 59.859375 C 67.109375 59.671875 67.039062 59.496094 66.925781 59.339844 C 66.816406 59.179688 66.675781 59.054688 66.507812 58.957031 C 66.230469 58.734375 65.914062 58.648438 65.5625 58.699219 C 65.167969 58.800781 64.875 59.035156 64.683594 59.394531 C 64.417969 59.804688 64.054688 60.09375 63.597656 60.269531 C 63.144531 60.441406 62.679688 60.460938 62.207031 60.332031 C 61.753906 60.253906 61.3125 60.128906 60.878906 59.960938 L 60.394531 59.792969 L 60.394531 56.570312 C 60.734375 56.503906 61.070312 56.445312 61.394531 56.386719 C 62.226562 56.238281 63.019531 56.09375 63.804688 55.890625 C 64.214844 55.808594 64.527344 55.589844 64.742188 55.230469 C 64.894531 54.910156 64.898438 54.585938 64.757812 54.257812 C 64.710938 54.0625 64.621094 53.882812 64.492188 53.726562 C 64.363281 53.574219 64.207031 53.453125 64.023438 53.367188 C 63.835938 53.285156 63.644531 53.246094 63.441406 53.25 C 63.238281 53.253906 63.046875 53.304688 62.867188 53.398438 C 62.34375 53.550781 61.808594 53.640625 61.261719 53.671875 L 61.089844 53.683594 C 60.871094 53.734375 60.675781 53.691406 60.496094 53.558594 C 60.328125 53.339844 60.261719 53.097656 60.304688 52.824219 C 60.34375 50.445312 60.34375 48.121094 60.304688 45.925781 C 60.269531 45.628906 60.351562 45.371094 60.554688 45.148438 C 60.71875 45.019531 60.902344 44.972656 61.109375 45.015625 C 62.132812 45.15625 63.128906 45.40625 64.097656 45.761719 C 64.835938 46.027344 65.582031 46.152344 66.058594 45.324219 C 66.253906 45.015625 66.308594 44.683594 66.21875 44.328125 C 66.054688 43.886719 65.757812 43.570312 65.324219 43.382812 C 63.804688 42.464844 62.167969 42.136719 60.410156 42.398438 L 60.410156 39.867188 C 60.621094 39.886719 60.832031 39.902344 61.03125 39.921875 C 61.535156 39.992188 62.042969 40.023438 62.550781 40.019531 C 63.105469 40.050781 63.617188 39.921875 64.085938 39.621094 C 64.550781 39.324219 64.886719 38.917969 65.09375 38.402344 C 65.253906 37.859375 65.152344 37.371094 64.789062 36.933594 C 64.472656 36.714844 64.121094 36.621094 63.738281 36.648438 C 63.566406 36.632812 63.417969 36.683594 63.289062 36.796875 C 62.492188 37.667969 61.738281 37.417969 60.851562 37.125 C 60.679688 37.074219 60.507812 37.019531 60.335938 36.960938 C 60.335938 36.511719 60.324219 36.054688 60.324219 35.605469 C 60.316406 34.476562 60.304688 33.417969 60.34375 32.328125 C 60.359375 32.054688 60.421875 31.792969 60.527344 31.542969 C 60.636719 31.289062 60.78125 31.066406 60.96875 30.863281 C 61.152344 30.664062 61.367188 30.5 61.609375 30.375 C 61.851562 30.25 62.109375 30.167969 62.378906 30.128906 C 62.636719 30.078125 62.894531 30.070312 63.15625 30.109375 C 63.414062 30.144531 63.660156 30.222656 63.894531 30.34375 C 64.128906 30.460938 64.335938 30.617188 64.515625 30.804688 C 64.695312 30.996094 64.84375 31.210938 64.949219 31.449219 C 65.128906 32.019531 65.183594 32.601562 65.121094 33.195312 C 65.082031 33.847656 65.160156 34.546875 65.980469 34.8125 C 66.140625 34.871094 66.308594 34.898438 66.480469 34.894531 C 66.648438 34.886719 66.8125 34.851562 66.972656 34.78125 C 67.128906 34.714844 67.265625 34.617188 67.386719 34.496094 C 67.503906 34.375 67.597656 34.234375 67.664062 34.074219 C 67.863281 33.804688 68.128906 33.664062 68.464844 33.65625 C 68.835938 33.679688 69.191406 33.773438 69.527344 33.929688 C 69.863281 34.085938 70.160156 34.296875 70.417969 34.566406 C 70.675781 34.832031 70.878906 35.136719 71.023438 35.480469 C 71.167969 35.824219 71.246094 36.179688 71.257812 36.550781 C 71.28125 36.960938 71.222656 37.359375 71.082031 37.746094 C 70.945312 38.136719 70.738281 38.480469 70.460938 38.785156 C 70.179688 39.085938 69.855469 39.324219 69.480469 39.496094 C 69.109375 39.667969 68.714844 39.757812 68.304688 39.773438 C 67.289062 39.90625 66.832031 40.363281 66.890625 41.175781 C 66.898438 41.546875 67.035156 41.855469 67.3125 42.105469 C 67.691406 42.378906 68.117188 42.480469 68.582031 42.410156 C 69.378906 42.375 70.128906 42.167969 70.835938 41.792969 C 71.539062 41.417969 72.128906 40.910156 72.605469 40.269531 C 73.089844 39.601562 73.464844 39.667969 74.066406 40.058594 C 74.328125 40.222656 74.554688 40.425781 74.746094 40.667969 C 74.933594 40.910156 75.078125 41.179688 75.171875 41.472656 C 75.269531 41.765625 75.308594 42.066406 75.300781 42.375 C 75.289062 42.683594 75.222656 42.980469 75.109375 43.265625 C 74.894531 43.867188 74.542969 44.367188 74.046875 44.769531 C 73.550781 45.167969 72.988281 45.410156 72.355469 45.492188 C 71.839844 45.5 71.40625 45.695312 71.058594 46.074219 C 70.851562 46.371094 70.789062 46.691406 70.867188 47.039062 C 70.898438 47.433594 71.074219 47.742188 71.402344 47.96875 C 71.839844 48.214844 72.296875 48.261719 72.777344 48.101562 C 73.4375 47.917969 74.082031 47.695312 74.71875 47.433594 C 74.976562 47.328125 75.242188 47.222656 75.511719 47.128906 C 76.039062 47.53125 76.332031 48.066406 76.378906 48.730469 C 76.449219 49.871094 76.105469 50.867188 75.335938 51.714844 Z M 75.335938 51.714844 " fill-opacity="1" fill-rule="nonzero"/></g></svg>