<svg xmlns="http://www.w3.org/2000/svg" xmlns:xlink="http://www.w3.org/1999/xlink" width="500" zoomAndPan="magnify" viewBox="0 0 375 374.999991" height="500" preserveAspectRatio="xMidYMid meet" version="1.0"><defs><clipPath id="6e08ee6608"><path d="M 80 172.421875 L 140.804688 172.421875 L 140.804688 202.847656 L 80 202.847656 Z M 80 172.421875 " clip-rule="nonzero"/></clipPath><clipPath id="3ec5c16856"><path d="M 140.792969 187.574219 C 140.792969 195.941406 134.011719 202.726562 125.640625 202.726562 L 95.363281 202.726562 C 87.003906 202.726562 80.078125 196.042969 80.019531 187.691406 C 79.953125 179.265625 86.761719 172.421875 95.167969 172.421875 L 125.640625 172.421875 C 134.007812 172.421875 140.792969 179.207031 140.792969 187.574219 " clip-rule="nonzero"/></clipPath><clipPath id="f3ea866150"><path d="M 106.605469 108 L 140.792969 108 L 140.792969 163.652344 L 106.605469 163.652344 Z M 106.605469 108 " clip-rule="nonzero"/></clipPath><clipPath id="7c1bd881ca"><path d="M 140.789062 132.324219 L 140.789062 163.546875 L 111.128906 133.882812 C 105.214844 127.964844 105.214844 118.375 111.128906 112.453125 C 117.042969 106.535156 126.644531 106.535156 132.558594 112.449219 C 137.828125 117.71875 140.789062 124.871094 140.789062 132.324219 " clip-rule="nonzero"/></clipPath><clipPath id="3c2ae55179"><path d="M 106.605469 211.605469 L 140.792969 211.605469 L 140.792969 267.195312 L 106.605469 267.195312 Z M 106.605469 211.605469 " clip-rule="nonzero"/></clipPath><clipPath id="5ae55c9d7a"><path d="M 140.789062 211.605469 L 140.789062 242.820312 C 140.789062 250.273438 137.828125 257.425781 132.558594 262.695312 C 126.644531 268.609375 117.054688 268.609375 111.128906 262.691406 C 105.207031 256.769531 105.214844 247.179688 111.128906 241.265625 Z M 140.789062 211.605469 " clip-rule="nonzero"/></clipPath><clipPath id="26aad61ff0"><path d="M 171.097656 81.273438 L 201.660156 81.273438 L 201.660156 138.578125 L 171.097656 138.578125 Z M 171.097656 81.273438 " clip-rule="nonzero"/></clipPath><clipPath id="a4636b8b1d"><path d="M 201.40625 96.683594 C 201.40625 104.011719 198.496094 111.042969 193.308594 116.226562 L 171.097656 138.4375 L 171.097656 96.488281 C 171.097656 88.082031 177.949219 81.273438 186.371094 81.339844 C 194.726562 81.402344 201.40625 88.328125 201.40625 96.683594 " clip-rule="nonzero"/></clipPath><clipPath id="085431f334"><path d="M 171.097656 236.632812 L 201.660156 236.632812 L 201.660156 293.9375 L 171.097656 293.9375 Z M 171.097656 236.632812 " clip-rule="nonzero"/></clipPath><clipPath id="7755eda841"><path d="M 193.175781 258.78125 C 198.449219 264.050781 201.40625 271.203125 201.40625 278.65625 C 201.40625 286.445312 195.523438 292.859375 187.960938 293.710938 C 187.960938 293.710938 187.957031 293.714844 187.953125 293.710938 C 187.382812 293.71875 186.816406 293.722656 186.25 293.722656 C 185.6875 293.722656 185.121094 293.71875 184.550781 293.710938 C 184.546875 293.714844 184.542969 293.710938 184.542969 293.710938 C 176.980469 292.867188 171.097656 286.449219 171.097656 278.660156 L 171.097656 236.707031 Z M 193.175781 258.78125 " clip-rule="nonzero"/></clipPath><clipPath id="b508304e6c"><path d="M 171.097656 108.015625 L 292.5 108.015625 L 292.5 267.195312 L 171.097656 267.195312 Z M 171.097656 108.015625 " clip-rule="nonzero"/></clipPath><clipPath id="02e7ce51eb"><path d="M 292.464844 186.773438 C 292.921875 195.484375 285.796875 202.726562 277.074219 202.726562 L 222.964844 202.726562 C 222.921875 202.726562 222.894531 202.785156 222.929688 202.820312 L 261.378906 241.265625 C 267.292969 247.179688 267.292969 256.773438 261.371094 262.695312 C 255.484375 268.578125 245.960938 268.613281 240.035156 262.789062 C 240.003906 262.757812 239.972656 262.730469 239.941406 262.695312 L 239.9375 262.695312 C 239.90625 262.660156 239.875 262.628906 239.84375 262.601562 L 201.40625 224.15625 L 201.40625 224.152344 L 186.257812 209.003906 L 186.25 209.003906 L 179.980469 202.726562 L 179.976562 202.726562 L 175.535156 198.285156 C 172.695312 195.441406 171.097656 191.59375 171.097656 187.574219 C 171.097656 183.554688 172.695312 179.703125 175.535156 176.859375 L 179.976562 172.421875 L 186.25 166.144531 L 201.40625 150.988281 L 239.855469 112.546875 L 239.949219 112.457031 L 240.039062 112.363281 C 245.964844 106.535156 255.488281 106.570312 261.378906 112.460938 C 267.296875 118.375 267.296875 127.972656 261.382812 133.886719 L 222.933594 172.335938 C 222.898438 172.367188 222.925781 172.429688 222.972656 172.429688 L 277.339844 172.429688 C 285.4375 172.429688 292.050781 178.785156 292.464844 186.78125 " clip-rule="nonzero"/></clipPath></defs><g clip-path="url(#6e08ee6608)"><g clip-path="url(#3ec5c16856)"><path fill="#0e2776" d="M 79.953125 172.421875 L 140.804688 172.421875 L 140.804688 202.726562 L 79.953125 202.726562 Z M 79.953125 172.421875 " fill-opacity="1" fill-rule="nonzero"/></g></g><g clip-path="url(#f3ea866150)"><g clip-path="url(#7c1bd881ca)"><path fill="#2dcf42" d="M 105.214844 106.535156 L 140.792969 106.535156 L 140.792969 163.515625 L 105.214844 163.515625 Z M 105.214844 106.535156 " fill-opacity="1" fill-rule="nonzero"/></g></g><g clip-path="url(#3c2ae55179)"><g clip-path="url(#5ae55c9d7a)"><path fill="#efd109" d="M 105.214844 211.605469 L 140.792969 211.605469 L 140.792969 268.582031 L 105.214844 268.582031 Z M 105.214844 211.605469 " fill-opacity="1" fill-rule="nonzero"/></g></g><g clip-path="url(#26aad61ff0)"><g clip-path="url(#a4636b8b1d)"><path fill="#e01d5b" d="M 168.972656 79.148438 L 295.046875 79.148438 L 295.046875 296.0625 L 168.972656 296.0625 Z M 168.972656 79.148438 " fill-opacity="1" fill-rule="nonzero"/></g></g><g clip-path="url(#085431f334)"><g clip-path="url(#7755eda841)"><path fill="#2bb1eb" d="M 168.972656 79.148438 L 295.046875 79.148438 L 295.046875 296.0625 L 168.972656 296.0625 Z M 168.972656 79.148438 " fill-opacity="1" fill-rule="nonzero"/></g></g><g clip-path="url(#b508304e6c)"><g clip-path="url(#02e7ce51eb)"><path fill="#0e2776" d="M 168.972656 79.148438 L 295.046875 79.148438 L 295.046875 296.0625 L 168.972656 296.0625 Z M 168.972656 79.148438 " fill-opacity="1" fill-rule="nonzero"/></g></g></svg>