<svg xmlns="http://www.w3.org/2000/svg" xmlns:xlink="http://www.w3.org/1999/xlink" width="150" zoomAndPan="magnify" viewBox="0 0 112.5 112.499997" height="150" preserveAspectRatio="xMidYMid meet" version="1.0"><defs><clipPath id="366d9d3a1c"><path d="M 25.433594 18 L 86.660156 18 L 86.660156 99.539062 L 25.433594 99.539062 Z M 25.433594 18 " clip-rule="nonzero"/></clipPath><clipPath id="07a7858492"><path d="M 40 12.175781 L 72 12.175781 L 72 29 L 40 29 Z M 40 12.175781 " clip-rule="nonzero"/></clipPath></defs><g clip-path="url(#366d9d3a1c)"><path fill="#0e2776" d="M 80.867188 99.824219 L 31.132812 99.824219 C 28 99.824219 25.460938 97.285156 25.460938 94.152344 L 25.460938 23.976562 C 25.460938 20.84375 28 18.300781 31.132812 18.300781 L 80.867188 18.300781 C 84 18.300781 86.539062 20.84375 86.539062 23.976562 L 86.539062 94.152344 C 86.539062 97.285156 84 99.824219 80.867188 99.824219 " fill-opacity="1" fill-rule="nonzero"/></g><path fill="#e7e8e6" d="M 80.875 92.171875 L 31.125 92.171875 L 31.125 25.953125 L 80.875 25.953125 L 80.875 92.171875 " fill-opacity="1" fill-rule="nonzero"/><g clip-path="url(#07a7858492)"><path fill="#4ebcc2" d="M 71.589844 28.230469 L 40.410156 28.230469 L 40.410156 16.582031 C 40.410156 14.148438 42.382812 12.171875 44.820312 12.171875 L 67.179688 12.171875 C 69.617188 12.171875 71.589844 14.148438 71.589844 16.582031 L 71.589844 28.230469 " fill-opacity="1" fill-rule="nonzero"/></g><path fill="#ffffff" d="M 52.328125 14.863281 L 47.5625 14.863281 C 46.128906 14.863281 44.964844 16.023438 44.964844 17.457031 C 44.964844 18.890625 46.128906 20.054688 47.5625 20.054688 L 52.328125 20.054688 L 52.328125 14.863281 " fill-opacity="1" fill-rule="nonzero"/><path fill="#ffffff" d="M 64.4375 14.863281 L 59.671875 14.863281 L 59.671875 20.054688 L 64.4375 20.054688 C 65.871094 20.054688 67.035156 18.890625 67.035156 17.457031 C 67.035156 16.023438 65.871094 14.863281 64.4375 14.863281 " fill-opacity="1" fill-rule="nonzero"/><path stroke-linecap="round" transform="matrix(0.0441743, 0, 0, -0.0441743, -25.969985, 149.912516)" fill="none" stroke-linejoin="miter" d="M 1798.569082 2494.170762 L 2248.049615 2494.170762 " stroke="#192746" stroke-width="30" stroke-opacity="1" stroke-miterlimit="10"/><path stroke-linecap="round" transform="matrix(0.0441743, 0, 0, -0.0441743, -25.969985, 149.912516)" fill="none" stroke-linejoin="miter" d="M 1798.569082 2306.437696 L 2248.049615 2306.437696 " stroke="#192746" stroke-width="30" stroke-opacity="1" stroke-miterlimit="10"/><path stroke-linecap="round" transform="matrix(0.0441743, 0, 0, -0.0441743, -25.969985, 149.912516)" fill="none" stroke-linejoin="miter" d="M 1798.569082 2118.70463 L 2248.049615 2118.70463 " stroke="#192746" stroke-width="30" stroke-opacity="1" stroke-miterlimit="10"/><path stroke-linecap="round" transform="matrix(0.0441743, 0, 0, -0.0441743, -25.969985, 149.912516)" fill="none" stroke-linejoin="miter" d="M 1798.569082 1931.059993 L 2248.049615 1931.059993 " stroke="#192746" stroke-width="30" stroke-opacity="1" stroke-miterlimit="10"/><path stroke-linecap="round" transform="matrix(0.0441743, 0, 0, -0.0441743, -25.969985, 149.912516)" fill="none" stroke-linejoin="miter" d="M 1798.569082 1743.326927 L 2248.049615 1743.326927 " stroke="#192746" stroke-width="30" stroke-opacity="1" stroke-miterlimit="10"/><path stroke-linecap="round" transform="matrix(0.0441743, 0, 0, -0.0441743, -25.969985, 149.912516)" fill="none" stroke-linejoin="miter" d="M 1798.569082 1555.593862 L 2248.049615 1555.593862 " stroke="#192746" stroke-width="30" stroke-opacity="1" stroke-miterlimit="10"/><path stroke-linecap="round" transform="matrix(0.0441743, 0, 0, -0.0441743, -25.969985, 149.912516)" fill="none" stroke-linejoin="round" d="M 1584.749698 2330.048025 L 1420.626961 2330.048025 L 1420.626961 2494.170762 L 1584.749698 2494.170762 Z M 1584.749698 2330.048025 " stroke="#192746" stroke-width="30" stroke-opacity="1" stroke-miterlimit="10"/><path stroke-linecap="round" transform="matrix(0.0441743, 0, 0, -0.0441743, -25.969985, 149.912516)" fill="none" stroke-linejoin="round" d="M 1584.749698 1954.581894 L 1420.626961 1954.581894 L 1420.626961 2118.70463 L 1584.749698 2118.70463 Z M 1584.749698 1954.581894 " stroke="#192746" stroke-width="30" stroke-opacity="1" stroke-miterlimit="10"/><path stroke-linecap="round" transform="matrix(0.0441743, 0, 0, -0.0441743, -25.969985, 149.912516)" fill="none" stroke-linejoin="round" d="M 1584.749698 1579.204191 L 1420.626961 1579.204191 L 1420.626961 1743.326927 L 1584.749698 1743.326927 Z M 1584.749698 1579.204191 " stroke="#192746" stroke-width="30" stroke-opacity="1" stroke-miterlimit="10"/><path stroke-linecap="round" transform="matrix(0.0441743, 0, 0, -0.0441743, -25.969985, 149.912516)" fill="none" stroke-linejoin="round" d="M 1461.303933 2441.467555 L 1524.795379 2380.628955 L 1667.518492 2623.894929 " stroke="#d64151" stroke-width="30" stroke-opacity="1" stroke-miterlimit="10"/><path stroke-linecap="round" transform="matrix(0.0441743, 0, 0, -0.0441743, -25.969985, 149.912516)" fill="none" stroke-linejoin="round" d="M 1461.303933 2065.559283 L 1524.795379 2004.720682 L 1667.518492 2247.898229 " stroke="#d64151" stroke-width="30" stroke-opacity="1" stroke-miterlimit="10"/><path stroke-linecap="round" transform="matrix(0.0441743, 0, 0, -0.0441743, -25.969985, 149.912516)" fill="none" stroke-linejoin="round" d="M 1461.303933 1689.562583 L 1524.795379 1628.723982 L 1667.518492 1871.989956 " stroke="#d64151" stroke-width="30" stroke-opacity="1" stroke-miterlimit="10"/></svg>