<svg xmlns="http://www.w3.org/2000/svg" xmlns:xlink="http://www.w3.org/1999/xlink" width="150" zoomAndPan="magnify" viewBox="0 0 112.5 112.499997" height="150" preserveAspectRatio="xMidYMid meet" version="1.0"><defs><clipPath id="cc8d36e9a0"><path d="M 16.699219 34 L 95.097656 34 L 95.097656 87.394531 L 16.699219 87.394531 Z M 16.699219 34 " clip-rule="nonzero"/></clipPath><clipPath id="8ae2318bed"><path d="M 37 24.671875 L 76 24.671875 L 76 47 L 37 47 Z M 37 24.671875 " clip-rule="nonzero"/></clipPath><clipPath id="2a247cd9f9"><path d="M 53.371094 40.214844 L 54.824219 40.214844 L 54.824219 40.941406 L 53.371094 40.941406 Z M 53.371094 40.214844 " clip-rule="nonzero"/></clipPath><clipPath id="c4b23efbfa"><path d="M 54.824219 40.574219 C 54.824219 40.773438 54.660156 40.9375 54.460938 40.9375 L 53.738281 40.9375 C 53.539062 40.9375 53.371094 40.777344 53.371094 40.578125 C 53.371094 40.375 53.53125 40.214844 53.734375 40.214844 L 54.460938 40.214844 C 54.660156 40.214844 54.824219 40.375 54.824219 40.574219 " clip-rule="nonzero"/></clipPath><clipPath id="29fd596aff"><path d="M 54.007812 38.675781 L 54.824219 38.675781 L 54.824219 40 L 54.007812 40 Z M 54.007812 38.675781 " clip-rule="nonzero"/></clipPath><clipPath id="d68c492e03"><path d="M 54.824219 39.253906 L 54.824219 40 L 54.113281 39.292969 C 53.972656 39.152344 53.972656 38.921875 54.113281 38.78125 C 54.257812 38.640625 54.484375 38.640625 54.625 38.78125 C 54.753906 38.90625 54.824219 39.078125 54.824219 39.253906 " clip-rule="nonzero"/></clipPath><clipPath id="f9da957f0b"><path d="M 54.007812 41.148438 L 54.824219 41.148438 L 54.824219 42.476562 L 54.007812 42.476562 Z M 54.007812 41.148438 " clip-rule="nonzero"/></clipPath><clipPath id="2e300a42d7"><path d="M 54.824219 41.148438 L 54.824219 41.894531 C 54.824219 42.074219 54.753906 42.246094 54.625 42.371094 C 54.484375 42.511719 54.257812 42.511719 54.113281 42.371094 C 53.972656 42.230469 53.972656 42 54.113281 41.859375 Z M 54.824219 41.148438 " clip-rule="nonzero"/></clipPath><clipPath id="a2a4fef7ea"><path d="M 55.546875 38.035156 L 56.277344 38.035156 L 56.277344 39.40625 L 55.546875 39.40625 Z M 55.546875 38.035156 " clip-rule="nonzero"/></clipPath><clipPath id="18d2fd7d9c"><path d="M 56.273438 38.402344 C 56.273438 38.578125 56.203125 38.746094 56.078125 38.871094 L 55.546875 39.402344 L 55.546875 38.398438 C 55.546875 38.199219 55.710938 38.035156 55.914062 38.035156 C 56.113281 38.039062 56.273438 38.203125 56.273438 38.402344 " clip-rule="nonzero"/></clipPath><clipPath id="978789a1f1"><path d="M 55.546875 41.746094 L 56.277344 41.746094 L 56.277344 43.117188 L 55.546875 43.117188 Z M 55.546875 41.746094 " clip-rule="nonzero"/></clipPath><clipPath id="eb3f113680"><path d="M 56.074219 42.277344 C 56.203125 42.402344 56.273438 42.574219 56.273438 42.75 C 56.273438 42.9375 56.132812 43.089844 55.949219 43.109375 C 55.949219 43.109375 55.949219 43.113281 55.949219 43.109375 C 55.9375 43.113281 55.921875 43.113281 55.910156 43.113281 C 55.894531 43.113281 55.882812 43.113281 55.871094 43.109375 C 55.867188 43.113281 55.867188 43.109375 55.867188 43.109375 C 55.6875 43.089844 55.546875 42.9375 55.546875 42.75 L 55.546875 41.75 Z M 56.074219 42.277344 " clip-rule="nonzero"/></clipPath><clipPath id="26fa048a13"><path d="M 55.546875 38.675781 L 58.449219 38.675781 L 58.449219 42.476562 L 55.546875 42.476562 Z M 55.546875 38.675781 " clip-rule="nonzero"/></clipPath><clipPath id="ea9fa04a40"><path d="M 58.449219 40.554688 C 58.457031 40.765625 58.289062 40.9375 58.078125 40.9375 L 56.785156 40.9375 C 56.785156 40.9375 56.785156 40.9375 56.785156 40.941406 L 57.703125 41.859375 C 57.847656 42 57.847656 42.230469 57.703125 42.371094 C 57.5625 42.511719 57.335938 42.511719 57.195312 42.371094 C 57.195312 42.371094 57.195312 42.371094 57.191406 42.371094 C 57.191406 42.371094 57.191406 42.367188 57.191406 42.367188 L 55.761719 40.9375 L 55.652344 40.832031 C 55.585938 40.761719 55.546875 40.671875 55.546875 40.574219 C 55.546875 40.480469 55.585938 40.386719 55.652344 40.320312 L 55.761719 40.214844 L 55.910156 40.0625 L 57.195312 38.777344 C 57.335938 38.640625 57.5625 38.640625 57.703125 38.78125 C 57.847656 38.921875 57.847656 39.152344 57.703125 39.292969 L 56.785156 40.210938 C 56.785156 40.210938 56.785156 40.214844 56.789062 40.214844 L 58.085938 40.214844 C 58.28125 40.214844 58.4375 40.367188 58.449219 40.554688 " clip-rule="nonzero"/></clipPath></defs><g clip-path="url(#cc8d36e9a0)"><path fill="#0e2776" d="M 92.78125 77.445312 L 90.082031 77.445312 C 90.203125 77.074219 90.328125 76.644531 90.328125 76.15625 L 90.328125 38.234375 C 90.328125 36.148438 88.671875 34.492188 86.585938 34.492188 L 76.523438 34.492188 C 76.765625 35.046875 76.953125 35.660156 76.953125 36.332031 C 76.953125 36.515625 76.953125 36.761719 76.890625 36.945312 L 86.585938 36.945312 C 87.261719 36.945312 87.875 37.5 87.875 38.234375 L 87.875 76.15625 C 87.875 76.828125 87.320312 77.445312 86.585938 77.445312 L 63.332031 77.445312 C 62.65625 77.445312 62.101562 77.996094 62.101562 78.671875 C 62.101562 79.34375 61.550781 79.898438 60.875 79.898438 L 51.058594 79.898438 C 50.382812 79.898438 49.832031 79.34375 49.832031 78.671875 C 49.832031 77.996094 49.277344 77.445312 48.605469 77.445312 L 25.347656 77.445312 C 24.675781 77.445312 24.0625 76.890625 24.0625 76.15625 L 24.0625 38.234375 C 24.0625 37.5625 24.613281 36.945312 25.347656 36.945312 L 39.644531 36.945312 L 39.644531 34.859375 L 38.234375 34.492188 L 25.347656 34.492188 C 23.261719 34.492188 21.605469 36.148438 21.605469 38.234375 L 21.605469 76.15625 C 21.605469 76.585938 21.667969 77.015625 21.851562 77.445312 L 19.152344 77.445312 C 17.800781 77.445312 16.699219 78.546875 16.699219 79.898438 L 16.699219 82.597656 C 16.699219 85.175781 18.785156 87.261719 21.359375 87.261719 L 90.632812 87.261719 C 93.210938 87.261719 95.296875 85.175781 95.296875 82.597656 L 95.296875 79.898438 C 95.238281 78.546875 94.132812 77.445312 92.78125 77.445312 Z M 92.78125 82.597656 C 92.78125 83.824219 91.800781 84.804688 90.574219 84.804688 L 21.359375 84.804688 C 20.132812 84.804688 19.152344 83.824219 19.152344 82.597656 L 19.152344 79.898438 L 47.621094 79.898438 C 48.113281 81.308594 49.464844 82.351562 51.058594 82.351562 L 60.875 82.351562 C 62.472656 82.351562 63.820312 81.308594 64.3125 79.898438 L 92.78125 79.898438 Z M 92.78125 82.597656 " fill-opacity="1" fill-rule="nonzero"/></g><path fill="#0e2776" d="M 82.226562 41.242188 C 82.964844 41.242188 83.578125 41.855469 83.578125 42.59375 L 83.578125 71.796875 C 83.578125 72.535156 82.964844 73.148438 82.226562 73.148438 L 29.707031 73.148438 C 28.96875 73.148438 28.355469 72.535156 28.355469 71.796875 L 28.355469 42.59375 C 28.355469 41.855469 28.96875 41.242188 29.707031 41.242188 L 39.585938 41.242188 L 39.585938 38.789062 L 29.707031 38.789062 C 27.621094 38.789062 25.902344 40.503906 25.902344 42.59375 L 25.902344 71.796875 C 25.902344 73.882812 27.621094 75.601562 29.707031 75.601562 L 82.226562 75.601562 C 84.316406 75.601562 86.03125 73.882812 86.03125 71.796875 L 86.03125 42.59375 C 86.03125 40.503906 84.316406 38.789062 82.226562 38.789062 L 78.238281 38.789062 C 78.484375 39.585938 78.425781 40.445312 78.117188 41.242188 Z M 82.226562 41.242188 " fill-opacity="1" fill-rule="nonzero"/><g clip-path="url(#8ae2318bed)"><path fill="#0e2776" d="M 74.25 37.007812 C 74.3125 36.824219 74.375 36.578125 74.375 36.332031 C 74.375 35.78125 74.128906 35.289062 73.761719 34.984375 L 73.761719 30.8125 C 73.761719 30.8125 73.761719 30.8125 73.761719 30.75 C 73.761719 30.628906 73.761719 30.566406 73.699219 30.503906 C 73.699219 30.441406 73.699219 30.441406 73.636719 30.382812 C 73.636719 30.320312 73.578125 30.257812 73.578125 30.199219 C 73.515625 30.136719 73.453125 30.011719 73.394531 29.953125 C 73.269531 29.828125 73.085938 29.707031 72.839844 29.644531 L 55.78125 24.796875 C 55.539062 24.738281 55.355469 24.738281 55.109375 24.796875 L 38.050781 29.585938 C 37.5 29.707031 37.128906 30.199219 37.128906 30.75 C 37.128906 31.300781 37.5 31.792969 38.050781 31.914062 L 41.976562 33.019531 L 41.976562 41.609375 C 41.976562 42.714844 42.652344 43.695312 43.632812 44.066406 L 43.757812 44.125 C 45.84375 44.921875 50.75 46.824219 55.90625 46.824219 C 61.429688 46.824219 65.355469 45.046875 67.257812 44.25 L 67.441406 44.125 C 68.363281 43.695312 68.976562 42.777344 68.976562 41.734375 L 68.976562 33.144531 L 71.308594 32.46875 L 71.308594 34.984375 C 70.9375 35.289062 70.691406 35.78125 70.691406 36.332031 C 70.691406 36.761719 70.816406 37.132812 71.0625 37.4375 L 70.078125 39.21875 C 69.773438 39.832031 69.957031 40.566406 70.570312 40.875 C 70.753906 40.996094 70.9375 40.996094 71.183594 40.996094 C 71.613281 40.996094 72.042969 40.75 72.289062 40.382812 L 72.839844 39.339844 L 73.578125 40.445312 C 73.824219 40.8125 74.191406 40.996094 74.621094 40.996094 C 74.867188 40.996094 75.050781 40.933594 75.296875 40.8125 C 75.847656 40.445312 76.03125 39.707031 75.664062 39.09375 Z M 55.476562 27.191406 L 68.175781 30.8125 L 56.152344 34.371094 L 43.019531 30.75 Z M 66.519531 41.671875 C 66.519531 41.734375 66.460938 41.792969 66.398438 41.855469 L 66.214844 41.976562 C 64.375 42.835938 60.875 44.371094 55.90625 44.371094 C 51.179688 44.371094 46.761719 42.652344 44.617188 41.855469 L 44.492188 41.792969 C 44.433594 41.792969 44.371094 41.734375 44.371094 41.609375 L 44.371094 33.695312 L 55.722656 36.824219 C 55.84375 36.824219 55.96875 36.886719 56.027344 36.886719 C 56.152344 36.886719 56.273438 36.886719 56.398438 36.824219 L 66.460938 33.816406 L 66.460938 41.671875 Z M 66.519531 41.671875 " fill-opacity="1" fill-rule="nonzero"/></g><path fill="#0e2776" d="M 40.628906 53.515625 C 40.628906 52.164062 39.523438 51.058594 38.171875 51.058594 L 35.71875 51.058594 C 34.367188 51.058594 33.265625 52.164062 33.265625 53.515625 L 33.265625 55.96875 C 33.265625 57.316406 34.367188 58.421875 35.71875 58.421875 L 38.171875 58.421875 C 39.523438 58.421875 40.628906 57.316406 40.628906 55.96875 Z M 35.71875 55.96875 L 35.71875 53.515625 L 38.171875 53.515625 L 38.171875 55.96875 Z M 35.71875 55.96875 " fill-opacity="1" fill-rule="nonzero"/><path fill="#0e2776" d="M 38.171875 60.875 L 35.71875 60.875 C 34.367188 60.875 33.265625 61.980469 33.265625 63.332031 L 33.265625 65.785156 C 33.265625 67.136719 34.367188 68.238281 35.71875 68.238281 L 38.171875 68.238281 C 39.523438 68.238281 40.628906 67.136719 40.628906 65.785156 L 40.628906 63.332031 C 40.628906 61.980469 39.523438 60.875 38.171875 60.875 Z M 35.71875 65.785156 L 35.71875 63.332031 L 38.171875 63.332031 L 38.171875 65.785156 Z M 35.71875 65.785156 " fill-opacity="1" fill-rule="nonzero"/><path fill="#0e2776" d="M 47.992188 53.515625 C 47.316406 53.515625 46.761719 54.066406 46.761719 54.742188 C 46.761719 55.414062 47.316406 55.96875 47.992188 55.96875 L 77.441406 55.96875 C 78.117188 55.96875 78.667969 55.414062 78.667969 54.742188 C 78.667969 54.066406 78.117188 53.515625 77.441406 53.515625 Z M 47.992188 53.515625 " fill-opacity="1" fill-rule="nonzero"/><path fill="#0e2776" d="M 77.441406 65.785156 C 78.117188 65.785156 78.667969 65.234375 78.667969 64.558594 C 78.667969 63.882812 78.117188 63.332031 77.441406 63.332031 L 47.992188 63.332031 C 47.316406 63.332031 46.761719 63.882812 46.761719 64.558594 C 46.761719 65.234375 47.316406 65.785156 47.992188 65.785156 Z M 77.441406 65.785156 " fill-opacity="1" fill-rule="nonzero"/><g clip-path="url(#2a247cd9f9)"><g clip-path="url(#c4b23efbfa)"><path fill="#0e2776" d="M 53.371094 40.214844 L 54.824219 40.214844 L 54.824219 40.9375 L 53.371094 40.9375 Z M 53.371094 40.214844 " fill-opacity="1" fill-rule="nonzero"/></g></g><g clip-path="url(#29fd596aff)"><g clip-path="url(#d68c492e03)"><path fill="#2dcf42" d="M 53.972656 38.640625 L 54.824219 38.640625 L 54.824219 40 L 53.972656 40 Z M 53.972656 38.640625 " fill-opacity="1" fill-rule="nonzero"/></g></g><g clip-path="url(#f9da957f0b)"><g clip-path="url(#2e300a42d7)"><path fill="#efd109" d="M 53.972656 41.148438 L 54.824219 41.148438 L 54.824219 42.511719 L 53.972656 42.511719 Z M 53.972656 41.148438 " fill-opacity="1" fill-rule="nonzero"/></g></g><g clip-path="url(#a2a4fef7ea)"><g clip-path="url(#18d2fd7d9c)"><path fill="#e01d5b" d="M 55.496094 37.984375 L 58.507812 37.984375 L 58.507812 43.167969 L 55.496094 43.167969 Z M 55.496094 37.984375 " fill-opacity="1" fill-rule="nonzero"/></g></g><g clip-path="url(#978789a1f1)"><g clip-path="url(#eb3f113680)"><path fill="#2bb1eb" d="M 55.496094 37.984375 L 58.507812 37.984375 L 58.507812 43.167969 L 55.496094 43.167969 Z M 55.496094 37.984375 " fill-opacity="1" fill-rule="nonzero"/></g></g><g clip-path="url(#26fa048a13)"><g clip-path="url(#ea9fa04a40)"><path fill="#0e2776" d="M 55.496094 37.984375 L 58.507812 37.984375 L 58.507812 43.167969 L 55.496094 43.167969 Z M 55.496094 37.984375 " fill-opacity="1" fill-rule="nonzero"/></g></g></svg>