<?xml version="1.0" encoding="UTF-8" standalone="no"?>
<!DOCTYPE svg PUBLIC "-//W3C//DTD SVG 1.1//EN" "http://www.w3.org/Graphics/SVG/1.1/DTD/svg11.dtd">
<svg width="100%" height="100%" viewBox="0 0 322 110" version="1.1" xmlns="http://www.w3.org/2000/svg" xmlns:xlink="http://www.w3.org/1999/xlink" xml:space="preserve" xmlns:serif="http://www.serif.com/" style="fill-rule:evenodd;clip-rule:evenodd;stroke-linejoin:round;stroke-miterlimit:2;">
    <g transform="matrix(1,0,0,1,-104,-195)">
        <g>
            <clipPath id="_clip1">
                <path d="M135.667,250.036C135.667,254.391 132.141,257.917 127.792,257.917L112.052,257.917C107.703,257.917 104.104,254.443 104.073,250.099C104.042,245.719 107.578,242.161 111.948,242.161L127.792,242.161C132.141,242.161 135.667,245.688 135.667,250.036"/>
            </clipPath>
            <g clip-path="url(#_clip1)">
                <rect x="104.042" y="242.161" width="31.63" height="15.755" style="fill:rgb(72,28,75);fill-rule:nonzero;"/>
            </g>
        </g>
    </g>
    <g transform="matrix(1,0,0,1,-104,-195)">
        <g>
            <clipPath id="_clip2">
                <path d="M135.667,221.318L135.667,237.547L120.245,222.13C117.172,219.052 117.172,214.068 120.245,210.99C123.323,207.911 128.313,207.911 131.385,210.984C134.125,213.724 135.667,217.443 135.667,221.318"/>
            </clipPath>
            <g clip-path="url(#_clip2)">
                <rect x="117.172" y="207.911" width="18.495" height="29.62" style="fill:rgb(45,207,66);fill-rule:nonzero;"/>
            </g>
        </g>
    </g>
    <g transform="matrix(1,0,0,1,-104,-195)">
        <g>
            <clipPath id="_clip3">
                <path d="M135.667,262.531L135.667,278.755C135.667,282.63 134.125,286.349 131.385,289.089C128.313,292.161 123.328,292.161 120.245,289.089C117.167,286.01 117.172,281.026 120.245,277.948L135.667,262.531Z"/>
            </clipPath>
            <g clip-path="url(#_clip3)">
                <rect x="117.172" y="262.531" width="18.495" height="29.62" style="fill:rgb(239,209,9);fill-rule:nonzero;"/>
            </g>
        </g>
    </g>
    <g transform="matrix(1,0,0,1,-104,-195)">
        <g>
            <clipPath id="_clip4">
                <path d="M167.177,202.792C167.177,206.599 165.661,210.255 162.969,212.948L151.422,224.495L151.422,202.688C151.422,198.318 154.979,194.781 159.359,194.813C163.703,194.849 167.177,198.448 167.177,202.792"/>
            </clipPath>
            <g clip-path="url(#_clip4)">
                <rect x="150.318" y="193.677" width="65.536" height="112.755" style="fill:rgb(224,29,91);fill-rule:nonzero;"/>
            </g>
        </g>
    </g>
    <g transform="matrix(1,0,0,1,-104,-195)">
        <g>
            <clipPath id="_clip5">
                <path d="M162.896,287.052C165.635,289.792 167.177,293.51 167.177,297.385C167.177,301.432 164.12,304.771 160.188,305.214L160.182,305.214C159.885,305.219 159.594,305.219 159.297,305.219C159.005,305.219 158.708,305.219 158.411,305.214C154.479,304.771 151.422,301.438 151.422,297.385L151.422,275.578L162.896,287.052Z"/>
            </clipPath>
            <g clip-path="url(#_clip5)">
                <rect x="150.318" y="193.677" width="65.536" height="112.755" style="fill:rgb(43,177,235);fill-rule:nonzero;"/>
            </g>
        </g>
    </g>
    <g transform="matrix(1,0,0,1,-104,-195)">
        <g>
            <clipPath id="_clip6">
                <path d="M214.51,249.625C214.75,254.151 211.047,257.917 206.51,257.917L178.385,257.917C178.359,257.917 178.344,257.948 178.365,257.964L198.349,277.948C201.427,281.026 201.427,286.01 198.349,289.089C195.286,292.146 190.339,292.167 187.255,289.135C187.24,289.12 187.224,289.104 187.208,289.089C187.188,289.073 187.172,289.057 187.156,289.042L167.177,269.057L167.177,269.052L159.302,261.177L159.297,261.177L156.036,257.917L153.724,255.609C152.25,254.13 151.422,252.13 151.422,250.036C151.422,247.948 152.25,245.948 153.724,244.469L156.036,242.161L159.297,238.896L167.177,231.021L187.208,210.99L187.26,210.943C190.339,207.911 195.286,207.932 198.349,210.99C201.427,214.068 201.427,219.057 198.354,222.13L178.365,242.115C178.349,242.135 178.359,242.167 178.385,242.167L206.646,242.167C210.859,242.167 214.297,245.469 214.51,249.625"/>
            </clipPath>
            <g clip-path="url(#_clip6)">
                <rect x="150.318" y="193.677" width="65.536" height="112.755" style="fill:rgb(72,28,75);fill-rule:nonzero;"/>
            </g>
        </g>
    </g>
    <g transform="matrix(1,0,0,1,114.826,78)">
        <g>
            <g>
                <path d="M26.177,-23.167L45.505,-44.161L33.536,-44.161L15.49,-23.682L15.49,-44.161L5.438,-44.161L5.438,0L15.49,0L15.49,-13.76L18.88,-17.536L32,0L44.734,0L26.177,-23.167Z" style="fill:rgb(72,28,75);fill-rule:nonzero;"/>
            </g>
        </g>
    </g>
    <g transform="matrix(1,0,0,1,160.266,78)">
        <g>
            <g>
                <path d="M8.766,-47.297C5.568,-47.297 3.458,-45.312 3.458,-42.24C3.458,-39.104 5.568,-37.12 8.766,-37.12C11.969,-37.12 14.146,-39.104 14.146,-42.24C14.146,-45.312 11.969,-47.297 8.766,-47.297ZM13.823,0L13.823,-34.115L3.776,-34.115L3.776,0L13.823,0Z" style="fill:rgb(72,28,75);fill-rule:nonzero;"/>
            </g>
        </g>
    </g>
    <g transform="matrix(1,0,0,1,177.93,78)">
        <g>
            <g>
                <path d="M8.641,-47.297C5.057,-47.297 3.266,-45.698 3.266,-42.24C3.266,-38.719 5.057,-37.12 8.641,-37.12C12.161,-37.12 13.953,-38.719 13.953,-42.24C13.953,-45.698 12.161,-47.297 8.641,-47.297ZM13.63,-34.115L3.583,-34.115L3.583,0.063C3.583,1.026 3.583,2.177 3.458,3.073C3.198,5.885 1.406,6.656 -2.625,6.271L-2.625,13.25C-1.536,13.375 -0.318,13.438 0.958,13.438C9.661,13.438 13.057,9.922 13.505,4.094C13.568,2.943 13.63,1.281 13.63,-0.062L13.63,-34.115Z" style="fill:rgb(72,28,75);fill-rule:nonzero;"/>
            </g>
        </g>
    </g>
    <g transform="matrix(1,0,0,1,195.21,78)">
        <g>
            <g>
                <path d="M23.682,0L33.474,0C32.958,-3.776 32.833,-6.078 32.833,-8.641L32.833,-19.01C32.833,-20.99 32.766,-22.911 32.641,-24.51C32.13,-30.594 28.479,-35.01 18.37,-35.01C10.047,-35.01 3.458,-30.594 3.266,-22.786L12.865,-22.786C13.12,-26.177 14.849,-28.094 17.984,-28.094C20.99,-28.094 22.526,-26.432 22.719,-24.385C22.849,-23.234 22.849,-22.339 22.849,-21.437L22.849,-20.865L20.672,-20.865C8.641,-20.865 2.047,-16.51 2.047,-9.089C2.047,-2.625 7.234,0.896 12.99,0.896C16.13,0.896 19.01,0.193 21.438,-1.344L22.974,-4.99L23.682,0ZM16.958,-6.016C14.208,-6.016 12.354,-7.359 12.354,-9.922C12.354,-13.885 16.641,-15.422 22.849,-14.911L22.849,-12.417C22.849,-8.193 19.969,-6.016 16.958,-6.016Z" style="fill:rgb(72,28,75);fill-rule:nonzero;"/>
            </g>
        </g>
    </g>
    <g transform="matrix(1,0,0,1,231.882,78)">
        <g>
            <g>
                <path d="M56.318,-26.495C55.552,-31.167 51.776,-35.01 45.12,-35.01C42.047,-35.01 39.807,-34.37 37.823,-33.026L34.37,-28.417C32.958,-32.193 29.438,-35.01 23.745,-35.01C20.609,-35.01 18.432,-34.37 16.385,-33.026L13.823,-28.802L13.823,-34.115L3.776,-34.115L3.776,0L13.823,0L13.823,-17.729C13.823,-24.703 15.682,-28.094 19.521,-28.094C22.786,-28.094 24.51,-26.177 24.958,-22.786C25.151,-21.057 25.214,-19.198 25.214,-17.599L25.214,0L35.198,0L35.198,-17.729C35.198,-24.703 37.12,-28.094 40.958,-28.094C44.161,-28.094 45.953,-26.177 46.339,-22.786C46.526,-21.057 46.594,-19.198 46.594,-17.599L46.594,0L56.641,0L56.641,-20.161C56.641,-22.911 56.578,-24.766 56.318,-26.495Z" style="fill:rgb(72,28,75);fill-rule:nonzero;"/>
            </g>
        </g>
    </g>
    <g transform="matrix(1,0,0,1,291.914,78)">
        <g>
            <g>
                <path d="M8.766,-47.297C5.568,-47.297 3.458,-45.312 3.458,-42.24C3.458,-39.104 5.568,-37.12 8.766,-37.12C11.969,-37.12 14.146,-39.104 14.146,-42.24C14.146,-45.312 11.969,-47.297 8.766,-47.297ZM13.823,0L13.823,-34.115L3.776,-34.115L3.776,0L13.823,0Z" style="fill:rgb(72,28,75);fill-rule:nonzero;"/>
            </g>
        </g>
    </g>
    <g transform="matrix(1,0,0,1,-104,-195)">
        <g>
            <clipPath id="_clip7">
                <path d="M420.833,263.292C417.693,263.292 415.151,265.839 415.151,268.974C415.151,272.115 417.693,274.656 420.833,274.656C423.969,274.656 426.516,272.115 426.516,268.974C426.516,265.839 423.969,263.292 420.833,263.292Z"/>
            </clipPath>
            <g clip-path="url(#_clip7)">
                <rect x="415.151" y="263.292" width="11.365" height="11.365" style="fill:rgb(224,29,91);fill-rule:nonzero;"/>
            </g>
        </g>
    </g>
</svg>
