<svg xmlns="http://www.w3.org/2000/svg" xmlns:xlink="http://www.w3.org/1999/xlink" width="150" zoomAndPan="magnify" viewBox="0 0 112.5 112.499997" height="150" preserveAspectRatio="xMidYMid meet" version="1.0"><defs><clipPath id="cb00ebffee"><path d="M 38 22.3125 L 93 22.3125 L 93 59 L 38 59 Z M 38 22.3125 " clip-rule="nonzero"/></clipPath><clipPath id="0c5a702393"><path d="M 17.480469 59 L 94.386719 59 L 94.386719 89.515625 L 17.480469 89.515625 Z M 17.480469 59 " clip-rule="nonzero"/></clipPath></defs><g clip-path="url(#cb00ebffee)"><path fill="#0e2776" d="M 38.148438 44.367188 L 38.148438 49.355469 C 38.148438 50.066406 38.730469 50.648438 39.441406 50.648438 L 49.871094 50.648438 C 49.804688 51.230469 49.773438 51.828125 49.773438 52.425781 L 49.773438 57.589844 C 49.773438 58.300781 50.355469 58.882812 51.066406 58.882812 L 79.484375 58.882812 C 80.191406 58.882812 80.773438 58.300781 80.773438 57.589844 L 80.773438 52.425781 C 80.773438 51.828125 80.742188 51.230469 80.675781 50.648438 L 91.109375 50.648438 C 91.816406 50.648438 92.398438 50.066406 92.398438 49.355469 L 92.398438 44.367188 C 92.398438 39.507812 89.234375 35.390625 84.859375 33.9375 C 86.085938 32.710938 86.828125 31.015625 86.828125 29.140625 C 86.828125 25.378906 83.761719 22.3125 80 22.3125 C 76.316406 22.3125 73.316406 25.234375 73.167969 28.867188 C 72.265625 25.105469 68.875 22.3125 64.839844 22.3125 C 61.011719 22.3125 57.765625 24.816406 56.652344 28.285156 C 56.234375 24.929688 53.359375 22.3125 49.886719 22.3125 C 46.125 22.3125 43.058594 25.378906 43.058594 29.140625 C 43.058594 31.097656 43.882812 32.871094 45.222656 34.117188 C 41.085938 35.699219 38.148438 39.703125 38.148438 44.367188 Z M 89.816406 44.367188 L 89.816406 48.066406 L 80.144531 48.066406 C 79 44.15625 76.351562 40.878906 72.863281 38.910156 C 74.445312 37.054688 76.769531 35.957031 79.257812 35.957031 L 81.421875 35.957031 C 86.054688 35.972656 89.816406 39.734375 89.816406 44.367188 Z M 80 24.894531 C 82.339844 24.894531 84.246094 26.800781 84.246094 29.140625 C 84.246094 31.484375 82.339844 33.390625 80 33.390625 C 77.65625 33.390625 75.753906 31.484375 75.753906 29.140625 C 75.753906 26.800781 77.65625 24.894531 80 24.894531 Z M 73.429688 30.984375 C 73.765625 32.195312 74.429688 33.277344 75.332031 34.117188 C 73.410156 34.859375 71.714844 36.117188 70.457031 37.8125 C 70.34375 37.765625 70.230469 37.730469 70.117188 37.699219 C 72.105469 36.132812 73.410156 33.710938 73.429688 30.984375 Z M 64.839844 24.894531 C 68.148438 24.894531 70.859375 27.59375 70.859375 30.917969 C 70.859375 34.246094 68.164062 36.941406 64.839844 36.941406 C 61.511719 36.941406 58.816406 34.226562 58.816406 30.917969 C 58.816406 27.609375 61.511719 24.894531 64.839844 24.894531 Z M 65.273438 39.507812 C 72.394531 39.507812 78.191406 45.304688 78.191406 52.425781 L 78.191406 56.300781 L 52.359375 56.300781 L 52.359375 52.425781 C 52.359375 45.304688 58.152344 39.507812 65.273438 39.507812 Z M 56.265625 31.546875 C 56.363281 32.886719 56.765625 34.148438 57.410156 35.246094 C 56.585938 34.679688 55.683594 34.246094 54.730469 33.9375 C 55.394531 33.257812 55.925781 32.453125 56.265625 31.546875 Z M 49.871094 24.894531 C 52.210938 24.894531 54.117188 26.800781 54.117188 29.140625 C 54.117188 31.484375 52.210938 33.390625 49.871094 33.390625 C 47.53125 33.390625 45.625 31.484375 45.625 29.140625 C 45.625 26.800781 47.53125 24.894531 49.871094 24.894531 Z M 49.128906 35.972656 L 51.292969 35.972656 C 53.777344 35.972656 56.085938 37.054688 57.6875 38.925781 C 54.199219 40.898438 51.550781 44.175781 50.402344 48.082031 L 40.734375 48.082031 L 40.734375 44.382812 C 40.734375 39.734375 44.496094 35.972656 49.128906 35.972656 Z M 49.128906 35.972656 " fill-opacity="1" fill-rule="nonzero"/></g><g clip-path="url(#0c5a702393)"><path fill="#0e2776" d="M 29.496094 59.769531 L 18.773438 59.769531 C 18.0625 59.769531 17.484375 60.351562 17.484375 61.0625 L 17.484375 84.957031 C 17.484375 85.667969 18.0625 86.25 18.773438 86.25 L 29.496094 86.25 C 30.207031 86.25 30.785156 85.667969 30.785156 84.957031 L 30.785156 82.90625 L 35.953125 82.90625 L 51.277344 87.769531 C 54.746094 89.058594 57.667969 89.6875 60.574219 89.6875 C 63.5 89.6875 66.421875 89.042969 69.90625 87.75 C 70.039062 87.703125 70.167969 87.636719 70.28125 87.542969 L 92.722656 69.234375 C 92.785156 69.167969 92.851562 69.101562 92.914062 69.039062 C 94.515625 67.054688 94.433594 64.015625 92.722656 62.128906 C 91.027344 60.238281 88.296875 60.046875 86.394531 61.691406 L 75.1875 70.75 C 75.1875 70.636719 75.1875 70.523438 75.1875 70.410156 C 75.140625 67.714844 73.023438 65.503906 70.457031 65.503906 L 58.007812 65.503906 C 57.296875 65.503906 56.621094 65.082031 56.199219 64.390625 C 56.101562 64.242188 55.992188 64.113281 55.84375 64 C 50.566406 60.175781 43.898438 59.449219 38.035156 62.0625 L 35.871094 63.03125 L 30.785156 63.03125 L 30.785156 61.0625 C 30.785156 60.351562 30.222656 59.769531 29.496094 59.769531 Z M 23.941406 81.730469 C 23.230469 81.730469 22.648438 81.148438 22.648438 80.4375 C 22.648438 79.726562 23.230469 79.144531 23.941406 79.144531 C 24.652344 79.144531 25.234375 79.726562 25.234375 80.4375 C 25.234375 81.148438 24.652344 81.730469 23.941406 81.730469 Z M 28.203125 64.339844 L 28.203125 83.667969 L 26.089844 83.667969 C 27.121094 82.972656 27.816406 81.792969 27.816406 80.4375 C 27.816406 78.304688 26.070312 76.5625 23.941406 76.5625 C 21.808594 76.5625 20.066406 78.304688 20.066406 80.4375 C 20.066406 81.777344 20.761719 82.972656 21.792969 83.667969 L 20.066406 83.667969 L 20.066406 62.355469 L 28.203125 62.355469 Z M 36.164062 65.632812 C 36.339844 65.632812 36.519531 65.601562 36.679688 65.519531 L 39.101562 64.4375 C 44.042969 62.242188 49.644531 62.824219 54.148438 65.972656 C 55.054688 67.3125 56.476562 68.085938 58.023438 68.085938 L 70.472656 68.085938 C 71.636719 68.085938 72.605469 69.152344 72.621094 70.445312 C 72.636719 71.171875 72.378906 71.847656 71.910156 72.316406 C 71.683594 72.542969 71.410156 72.71875 71.136719 72.816406 C 70.765625 72.882812 70.390625 72.914062 70.019531 72.914062 L 56.167969 72.914062 C 55.457031 72.914062 54.875 73.496094 54.875 74.207031 C 54.875 74.914062 55.457031 75.496094 56.167969 75.496094 L 70.601562 75.496094 C 70.988281 75.496094 71.378906 75.449219 71.75 75.351562 C 73.363281 75.0625 74.882812 74.351562 76.222656 73.285156 L 88.070312 63.695312 C 88.089844 63.679688 88.089844 63.679688 88.105469 63.664062 C 88.945312 62.9375 90.089844 63.03125 90.847656 63.855469 C 91.6875 64.777344 91.753906 66.308594 91.011719 67.328125 L 68.859375 85.410156 C 62.59375 87.703125 58.507812 87.671875 52.195312 85.328125 C 52.179688 85.328125 52.164062 85.3125 52.132812 85.3125 L 36.597656 80.371094 C 36.46875 80.339844 36.339844 80.308594 36.210938 80.308594 L 30.785156 80.308594 L 30.785156 65.617188 L 36.164062 65.617188 Z M 36.164062 65.632812 " fill-opacity="1" fill-rule="nonzero"/></g></svg>